
        <svg width="680" height="504" viewBox="0 0 680 504" fill="none" xmlns="http://www.w3.org/2000/svg">
        <g clip-path="url(#clip0)">
        <path opacity="0.1" d="M288.907 33.8326C266.597 24.7573 243.02 17.1596 218.952 18.1266C183.539 19.52 149.621 40.8178 132.959 72.0918C118.842 98.5849 117.102 129.643 111.022 159.043C103.531 195.272 89.1857 229.699 73.8563 263.37C65.6214 281.43 56.9363 299.929 55.5858 319.755C53.7071 347.276 66.8578 374.706 87.4751 393.03C108.092 411.355 135.492 420.995 162.964 423.103C177.591 424.226 192.873 423.187 205.867 416.376C219.612 409.169 229.63 396.142 243.429 389.042C256.219 382.436 271.177 381.535 285.534 382.393C304.339 383.519 322.869 387.459 340.507 394.081C360.572 401.625 379.233 412.544 399.256 420.19C419.279 427.836 441.649 432.106 462.116 425.722C481.323 419.716 496.533 405.181 510.236 390.436C532.727 366.234 553.24 340.264 571.577 312.776C583.936 294.253 595.436 274.709 600.904 253.117C611.348 211.843 596.972 165.271 565.077 137.078C538.668 113.726 503.201 103.588 468.491 97.4378C436.841 91.828 400.246 91.4797 371.112 76.8607C343.322 62.8964 318.041 45.6888 288.907 33.8326Z" fill="#2DC2BD"/>
        <path d="M522.9 72.236C514.329 72.5783 513.897 94.723 514.431 95.69C514.965 96.657 512.486 106.651 512.486 106.651C512.486 106.651 508.597 121.805 509.047 124.622C509.497 127.438 506.952 129.282 506.952 129.282C503.147 130.784 498.375 135.625 497.109 136.952L496.791 137.295C496.791 137.295 493.105 139.697 492.457 140.646C491.809 141.595 490.056 140.838 490.056 140.838C490.056 140.838 485.075 140.358 484.426 140.55C483.982 140.682 483.286 139.865 482.89 139.349C482.704 139.102 482.584 138.916 482.584 138.916L482.434 134.448C482.246 134.304 482.045 134.18 481.833 134.075C481.935 133.571 482.062 133.048 482.218 132.514C484.457 131.421 486.347 129.723 487.673 127.613C487.818 127.384 487.95 127.15 488.076 126.916C488.407 127.146 488.807 127.258 489.21 127.234C489.387 127.239 489.565 127.223 489.738 127.186C490.298 127.035 490.82 126.771 491.275 126.411C492.514 125.575 493.502 124.416 494.132 123.06C494.242 122.801 494.333 122.534 494.402 122.261C494.312 122.411 494.216 122.561 494.12 122.706C494.355 122.072 494.448 121.395 494.393 120.721C494.338 120.048 494.136 119.395 493.802 118.808C493.334 118.051 492.601 117.438 492.301 116.597C491.797 115.15 492.751 113.654 493.34 112.237C493.908 110.947 494.094 109.521 493.874 108.129C493.756 107.431 493.499 106.765 493.117 106.169C492.735 105.573 492.237 105.061 491.653 104.663C489.294 103.132 486.095 103.972 483.364 103.234C482.389 102.917 481.436 102.534 480.513 102.087C479.11 101.481 477.648 101.026 476.149 100.729C474.667 100.435 472.872 100.405 471.948 101.564C471.69 101.932 471.461 102.32 471.264 102.723C470.966 103.206 470.575 103.625 470.115 103.956C469.654 104.287 469.133 104.523 468.581 104.651C468.036 104.755 467.484 104.813 466.93 104.825C466.98 104.6 466.98 104.366 466.93 104.141C466.234 101.858 468.227 100.165 470.82 99.1435C473.412 98.1225 483.274 90.3505 484.42 88.5066C485.567 86.6627 493.592 80.8788 493.592 80.8788C493.592 80.8788 505.596 77.4793 509.533 65.0946C513.471 52.71 490.699 73.7435 488.406 74.3741C486.113 75.0048 482.83 77.3772 482.83 77.3772L468.227 85.8279C465.443 87.3999 462.807 89.2212 460.352 91.2694C456.817 94.3266 454.578 99.5219 454.578 99.5219C454.578 99.5219 453.179 101.804 451.139 105.108C450.013 106.99 448.494 108.607 446.685 109.846L446.751 109.726C446.589 109.925 441.565 116.273 441.121 119.048C440.677 121.823 438.63 133.132 438.63 133.132C438.63 133.132 436.829 142.015 435.593 143.763C435.593 143.763 434.591 148.862 433.996 149.547C433.402 150.232 430.995 157.457 431.403 158.19C431.403 158.19 429.111 163.193 429.513 165.085L425.377 174.995C425.377 174.995 423.133 179.896 423.283 182.761C423.355 184.149 423.415 185.764 423.457 187.086C423.457 187.296 423.457 187.494 423.457 187.686C423.457 187.896 423.457 188.101 423.457 188.287C423.235 188.659 422.664 189.608 422.07 190.755C421.218 192.425 420.312 194.509 420.366 195.794C420.462 198.053 420.468 203.566 419.429 205.59L419.123 205.47C418.759 206.074 418.553 206.76 418.523 207.464L418.595 207.5C418.595 207.675 418.541 207.855 418.523 208.047C418.271 210.347 418.637 213.549 418.061 214.251C417.262 215.224 417.659 236.786 417.659 236.786C417.659 236.786 416.362 250.282 418.955 258.835L418.757 265.532C418.757 265.532 418.655 271.844 418.955 272.739C419.255 273.634 419.357 280.025 419.357 280.025L420.852 290.71C420.852 290.71 418.853 307.221 420.552 311.299C421.536 313.549 422.144 315.945 422.352 318.392C423.217 318.868 424.142 319.225 425.101 319.455V320.056L424.711 330.098V330.651C424.711 330.651 424.663 330.915 424.627 331.353C424.627 331.431 424.627 331.515 424.627 331.6C424.624 331.623 424.624 331.648 424.627 331.672C424.627 331.738 424.627 331.81 424.627 331.882C424.624 331.936 424.624 331.99 424.627 332.044C424.63 332.092 424.63 332.14 424.627 332.188V332.308C424.627 332.555 424.627 332.819 424.627 333.095C424.627 333.203 424.627 333.317 424.627 333.431C424.627 333.546 424.627 333.497 424.627 333.527V333.678C424.627 333.744 424.627 333.81 424.627 333.876V333.972C424.627 334.074 424.657 334.17 424.675 334.272C424.672 334.296 424.672 334.32 424.675 334.344C424.675 334.458 424.717 334.567 424.741 334.675C424.741 334.783 424.789 334.891 424.819 334.999C424.822 335.011 424.822 335.023 424.819 335.035C424.819 335.089 424.849 335.149 424.867 335.203C424.864 335.229 424.864 335.255 424.867 335.281C424.867 335.347 424.909 335.413 424.927 335.486V335.534C424.987 335.702 425.047 335.87 425.119 336.038C425.117 336.056 425.117 336.074 425.119 336.092C425.119 336.152 425.173 336.218 425.203 336.278L425.239 336.362L425.317 336.525L425.365 336.615L425.449 336.765L425.503 336.855C425.503 336.903 425.557 336.951 425.587 336.999C425.617 337.047 425.629 337.059 425.647 337.095L425.737 337.233L425.804 337.323L425.9 337.462L425.972 337.552L426.08 337.684L426.152 337.768L426.278 337.912L426.344 337.984L426.548 338.182C426.567 338.205 426.589 338.226 426.614 338.242C426.661 338.291 426.711 338.338 426.764 338.38L426.86 338.459L426.992 338.567L427.106 338.651L427.238 338.747L427.364 338.831L427.496 338.915L427.634 338.993L427.772 339.077L427.916 339.149L428.066 339.221L428.216 339.293L428.366 339.359L428.528 339.426L428.691 339.486L428.859 339.546L429.039 339.6L429.321 339.684L429.555 339.744L429.741 339.78L429.933 339.822H430.137L430.335 339.852H430.545H430.755H430.971H431.193H431.416H432.364H432.64H432.868L433.192 339.822H433.39L433.936 339.762C433.936 339.762 440.737 340.777 440.959 338.086C440.959 337.948 440.959 337.804 440.989 337.654V337.311C440.986 337.269 440.986 337.227 440.989 337.185C440.989 337.053 440.989 336.909 440.989 336.765V336.699C440.989 336.549 440.989 336.398 440.989 336.242V335.918C440.989 335.654 440.989 335.383 440.989 335.113C440.989 335.011 440.989 334.915 440.989 334.813C440.989 334.537 440.989 334.266 440.989 333.996V333.954C440.989 333.888 440.989 333.834 440.989 333.768C440.947 332.434 440.881 331.197 440.839 330.506C440.839 330.14 440.803 329.906 440.803 329.906C440.803 329.906 438.486 326.41 438.864 325.101C439.242 323.792 439.158 319.347 439.158 319.347C439.158 319.347 438.258 317.215 437.652 315.329C437.604 315.185 437.562 315.041 437.52 314.902C438.023 314.327 438.495 313.725 438.936 313.101C439.797 308.47 439.206 303.687 437.244 299.407C437.13 299.328 437.038 299.223 436.974 299.1C436.91 298.978 436.877 298.842 436.877 298.704C436.874 298.68 436.874 298.656 436.877 298.632L438.036 284.451L437.334 276.199C437.334 276.199 436.835 270.559 437.934 268.133L440.125 246.769L443.234 234.342C443.234 234.342 444.23 233.855 445.034 236.192C445.839 238.528 447.819 249.105 447.819 249.105L452.621 266.589C452.621 266.589 453.419 272.805 454.116 273.682C454.812 274.559 454.818 278.439 454.818 278.439C454.818 278.439 456.312 281.55 456.114 282.908C455.916 284.265 456.114 287.959 456.606 289.22C457.099 290.481 457.309 299.431 457.309 299.431C456.735 302.357 456.803 305.374 457.507 308.272C458.707 312.74 458.005 318.374 458.005 318.374C458.131 318.569 458.268 318.757 458.413 318.939C458.365 319.071 458.311 319.203 458.263 319.323C457.951 320.134 457.705 320.704 457.705 320.704C457.705 320.704 457.633 325.149 458.005 326.458C458.377 327.768 456.06 331.263 456.06 331.263C456.06 331.263 456.06 331.479 456.024 331.864C455.982 332.554 455.916 333.786 455.874 335.125C455.874 335.185 455.874 335.245 455.874 335.311V335.359V336.164C455.874 336.266 455.874 336.368 455.874 336.471C455.874 336.741 455.874 337.011 455.874 337.275C455.874 337.323 455.874 337.377 455.874 337.425C455.874 337.474 455.874 337.504 455.874 337.54V337.594C455.874 337.75 455.874 337.906 455.874 338.056V338.122C455.874 338.266 455.874 338.41 455.874 338.549C455.871 338.587 455.871 338.625 455.874 338.663C455.874 338.777 455.874 338.897 455.874 339.011C455.874 339.125 455.874 339.305 455.904 339.444C456.132 342.134 462.933 341.119 462.933 341.119L463.479 341.185H463.671H464.001H464.223H464.505H465.442H465.664H465.886H466.102H466.312H466.516L466.72 341.149L466.918 341.119L467.11 341.077L467.302 341.041L467.536 340.981L467.818 340.897L467.993 340.843L468.161 340.783C468.216 340.767 468.27 340.746 468.323 340.723L468.485 340.657L468.641 340.591L468.791 340.525L468.941 340.447L469.079 340.375L469.223 340.296L469.355 340.212L469.493 340.128L469.613 340.044L469.745 339.948C469.786 339.923 469.824 339.895 469.859 339.864C469.906 339.833 469.95 339.799 469.991 339.762L470.093 339.678L470.243 339.546L470.309 339.48L470.513 339.281L470.573 339.209L470.705 339.071L470.771 338.981C470.813 338.94 470.851 338.896 470.886 338.849L470.952 338.759L471.054 338.621L471.114 338.531L471.21 338.392C471.227 338.359 471.248 338.327 471.27 338.296C471.27 338.248 471.324 338.2 471.354 338.152L471.408 338.062C471.408 338.008 471.462 337.96 471.486 337.912C471.504 337.883 471.52 337.853 471.534 337.822C471.534 337.768 471.588 337.714 471.612 337.66L471.654 337.576C471.654 337.516 471.708 337.456 471.738 337.389V337.335C471.804 337.167 471.87 336.999 471.924 336.831V336.783C471.924 336.717 471.966 336.651 471.99 336.585C471.987 336.557 471.987 336.529 471.99 336.501C471.99 336.447 471.99 336.386 472.038 336.332V336.302C472.041 336.29 472.041 336.278 472.038 336.266C472.038 336.158 472.098 336.05 472.122 335.948C472.122 335.84 472.17 335.732 472.188 335.624V335.546C472.188 335.443 472.224 335.347 472.236 335.251C472.248 335.155 472.236 335.185 472.236 335.149C472.236 335.113 472.236 335.017 472.236 334.951C472.236 334.885 472.236 334.849 472.236 334.801C472.236 334.753 472.236 334.741 472.236 334.705C472.236 334.669 472.236 334.482 472.236 334.368C472.236 334.092 472.236 333.828 472.236 333.582V333.317C472.233 333.263 472.233 333.209 472.236 333.155C472.236 333.083 472.236 333.017 472.236 332.945C472.233 332.921 472.233 332.897 472.236 332.873C472.236 332.789 472.236 332.705 472.236 332.633C472.2 332.194 472.158 331.93 472.158 331.93V331.383L471.78 321.665V321.065C472.338 320.752 472.908 320.398 473.502 319.984C473.502 319.984 473.4 314.446 474.997 312.218C476.594 309.989 474.199 304.151 474.199 304.151L473.202 283.268L473.599 273.658C472.808 272.233 472.394 270.628 472.398 268.997C472.24 266.914 471.699 264.878 470.802 262.991C470.802 262.991 469.805 259.688 471.006 258.715C472.206 257.742 469.709 236.492 469.709 236.492C469.709 236.492 470.309 220.966 469.169 211.747V211.597L469.487 211.452C469.391 210.714 469.289 210.023 469.175 209.38L468.839 209.482C468.698 208.668 468.497 207.865 468.239 207.08L466.642 199.747C466.642 199.747 466.606 199.362 466.564 198.804C466.51 198.143 466.45 197.248 466.438 196.461C466.433 196.13 466.469 195.799 466.546 195.476L466.462 195.404C466.47 195.231 466.498 195.06 466.546 194.894L466.198 194.599C466.198 194.599 466.15 194.269 466.114 193.764C466.036 192.647 465.994 190.701 466.546 189.602C467.344 187.998 475.549 181.926 475.549 181.926L480.147 172.719C480.147 172.719 484.732 166.256 488.22 164.995C491.707 163.734 502.571 156.502 502.571 156.502C502.571 156.502 506.358 152.616 506.658 151.697L506.784 151.505H506.856V151.379L517.06 136.081C521.141 132.778 521.291 125.739 521.291 125.739L522.354 109.654L522.006 100.141L522.498 94.735C522.498 94.735 531.465 71.8996 522.9 72.236ZM464.451 113.859C463.343 115.801 462.759 118 462.759 120.237C462.759 120.345 462.759 120.453 462.759 120.561C462.759 120.67 462.759 120.736 462.759 120.82C462.759 122.818 463.225 124.788 464.121 126.574C463.668 127.082 463.33 127.682 463.131 128.333C462.627 127.697 461.15 125.751 461.066 124.459C460.964 122.91 459.469 121.841 459.469 121.841C459.469 121.841 459.193 118.898 459.566 118.393L459.62 118.345C459.62 118.345 459.662 118.273 459.746 118.153C460.172 117.51 461.606 115.342 463.089 112.874C463.335 112.979 463.59 113.064 463.851 113.126L464.763 113.354L464.451 113.859Z" fill="url(#paint0_linear)"/>
        <path d="M493.526 112.237C493.616 112.033 493.688 111.816 493.76 111.6C493.53 112.078 493.33 112.57 493.16 113.072C493.286 112.789 493.412 112.513 493.526 112.237Z" fill="url(#paint1_linear)"/>
        <path d="M467.116 126.52C467.116 126.52 465.238 135.481 461.774 136.64C458.311 137.799 465.976 148.052 465.976 148.052L481.863 147.181L482.152 143.859C482.152 143.859 479.151 137.21 484.174 129.12C489.198 121.03 467.116 126.52 467.116 126.52Z" fill="#F6BAC2"/>
        <path d="M442.201 338.098C441.985 340.771 435.413 339.762 435.413 339.762C424.513 341.275 426.314 330.584 426.314 330.584V330.038L426.692 320.068L426.8 317.287C426.8 317.287 438.804 311.797 438.498 312.95C438.384 313.383 438.636 314.422 438.984 315.545C439.584 317.413 440.443 319.527 440.443 319.527C440.443 319.527 440.515 323.936 440.155 325.233C439.795 326.53 442.033 330.002 442.033 330.002C442.033 330.002 442.033 330.218 442.069 330.602C442.247 333.097 442.291 335.599 442.201 338.098Z" fill="#B77983"/>
        <path d="M463.215 340.987C463.215 340.987 456.642 342.002 456.426 339.323C456.327 336.819 456.365 334.31 456.54 331.81C456.54 331.449 456.57 331.209 456.57 331.209C456.57 331.209 458.809 327.738 458.449 326.44C458.089 325.143 458.161 320.728 458.161 320.728C458.161 320.728 458.395 320.17 458.701 319.365C459.343 317.677 460.31 314.938 460.112 314.158C459.824 312.998 471.81 318.488 471.81 318.488L471.93 321.599L472.296 331.239V331.786C472.296 331.786 474.121 342.507 463.215 340.987Z" fill="#B77983"/>
        <path d="M508.273 67.2208C504.455 79.5034 492.871 82.8789 492.871 82.8789C492.871 82.8789 485.117 88.6327 484.012 90.4346C482.908 92.2364 473.376 99.9724 470.868 100.987C468.359 102.002 466.444 103.684 467.116 105.942C467.716 108.039 461.15 118.297 460.16 119.823L460.04 120.015L457.969 122.183L450.94 125.745L445.214 123.913L444.488 117.03L447.525 111.624C449.282 110.385 450.75 108.781 451.829 106.921C453.803 103.642 455.154 101.384 455.154 101.384C455.154 101.384 457.321 96.2305 460.736 93.1914C463.099 91.1587 465.645 89.3491 468.341 87.7859L482.452 79.3773C482.452 79.3773 485.627 77.0168 487.854 76.3742C490.08 75.7315 512.078 54.9383 508.273 67.2208Z" fill="#F6BAC2"/>
        <path opacity="0.05" d="M450.94 121.318L460.328 119.438C460.226 119.544 460.166 119.682 460.16 119.829L460.04 120.021L457.969 122.189L450.94 125.751L445.214 123.919L444.488 117.036L447.525 111.63C444.65 117.636 447.453 121.901 447.453 121.901L450.94 121.318Z" fill="black"/>
        <path opacity="0.05" d="M505.836 152.346C505.81 152.409 505.788 152.473 505.77 152.538C505.681 152.753 505.564 152.955 505.422 153.139L501.634 154.989L495.854 155.589L492.853 148.316L494.852 140.346L495.956 138.856L496.263 138.52C496.377 139.961 496.959 147.481 496.923 149.739C496.875 152.244 498.723 152.442 498.723 152.442L505.836 152.346Z" fill="black"/>
        <path d="M505.548 152.899C505.522 152.961 505.5 153.025 505.482 153.091C505.194 154.004 501.538 157.86 501.538 157.86C501.538 157.86 491.041 165.037 487.673 166.268C484.306 167.499 479.871 173.926 479.871 173.926L475.441 183.073C475.441 183.073 467.5 189.08 466.732 190.689C466.198 191.782 466.24 193.692 466.318 194.821C466.318 195.32 466.39 195.65 466.39 195.65L464.049 198.095L462.182 200.041L459.554 202.78L455.274 202.179L441.937 200.059L439.38 198.617L425.185 190.617C425.185 190.617 425.185 190.119 425.149 189.356C425.149 189.02 425.149 188.635 425.113 188.209C425.071 186.911 425.011 185.296 424.945 183.92C424.801 181.079 426.968 176.214 426.968 176.214L430.959 166.382C430.575 164.508 432.79 159.541 432.79 159.541C432.406 158.821 434.717 151.643 435.293 150.971C435.869 150.298 436.835 145.235 436.835 145.235C438.036 143.505 439.77 134.688 439.77 134.688C439.77 134.688 441.745 123.51 442.171 120.718C442.597 117.925 447.453 111.666 447.609 111.474C444.146 117.829 447.177 122.453 447.177 122.453L450.646 121.853L460.04 120.021C459.608 120.309 459.896 123.486 459.896 123.486C460.727 124.119 461.279 125.053 461.432 126.087C461.522 127.499 463.233 129.691 463.551 130.081L463.599 130.135C463.72 129.465 463.985 128.829 464.375 128.271C464.766 127.713 465.273 127.246 465.862 126.904L468.029 129.799L468.755 133.264C468.755 133.264 468.557 133.751 467.308 134.712C466.06 135.673 467.836 138.177 467.836 138.177C468.437 139.193 468.611 142.946 468.611 142.946C470.201 141.553 472.698 141.553 472.698 141.553C473.715 140.532 474.546 139.341 475.153 138.033C475.204 137.819 475.302 137.62 475.441 137.449C475.58 137.279 475.756 137.142 475.955 137.05C476.155 136.957 476.372 136.911 476.592 136.915C476.812 136.919 477.028 136.973 477.224 137.072C477.949 136.442 478.74 135.892 479.583 135.433C480.741 134.832 482.086 136.033 482.086 136.033L482.23 140.472C482.23 140.472 482.344 140.652 482.53 140.898C482.908 141.427 483.586 142.238 484.012 142.099C484.612 141.907 489.45 142.388 489.45 142.388C489.45 142.388 491.137 143.109 491.761 142.196C492.385 141.283 495.962 138.874 495.962 138.874C495.962 138.874 496.653 147.817 496.653 150.316C496.653 152.814 498.453 153.019 498.453 153.019L505.548 152.899Z" fill="#D39999"/>
        <path d="M466.156 147.907C466.633 147.907 467.02 147.52 467.02 147.043C467.02 146.565 466.633 146.178 466.156 146.178C465.679 146.178 465.292 146.565 465.292 147.043C465.292 147.52 465.679 147.907 466.156 147.907Z" fill="#4B4442"/>
        <path d="M459.848 160.484C460.325 160.484 460.712 160.097 460.712 159.619C460.712 159.142 460.325 158.755 459.848 158.755C459.37 158.755 458.983 159.142 458.983 159.619C458.983 160.097 459.37 160.484 459.848 160.484Z" fill="#4B4442"/>
        <path d="M447.429 187.41C447.907 187.41 448.294 187.023 448.294 186.545C448.294 186.067 447.907 185.68 447.429 185.68C446.952 185.68 446.565 186.067 446.565 186.545C446.565 187.023 446.952 187.41 447.429 187.41Z" fill="#4B4442"/>
        <path d="M453.299 173.824C453.777 173.824 454.164 173.437 454.164 172.959C454.164 172.481 453.777 172.094 453.299 172.094C452.822 172.094 452.435 172.481 452.435 172.959C452.435 173.437 452.822 173.824 453.299 173.824Z" fill="#4B4442"/>
        <path opacity="0.05" d="M439.032 315.545C434.519 320.914 429.645 320.824 426.74 320.068L426.848 317.287C426.848 317.287 438.852 311.797 438.546 312.95C438.432 313.383 438.66 314.422 439.032 315.545Z" fill="black"/>
        <path opacity="0.05" d="M471.93 321.623C464.265 326.056 459.77 320.861 458.725 319.389C459.367 317.701 460.334 314.962 460.136 314.182C459.848 313.023 471.834 318.512 471.834 318.512L471.93 321.623Z" fill="black"/>
        <path d="M475.009 312.278C473.472 314.494 473.563 319.984 473.563 319.984C463.647 327.113 458.449 318.44 458.449 318.44C458.449 318.44 459.121 312.854 457.969 308.422C457.286 305.545 457.221 302.556 457.777 299.653C457.777 299.653 457.585 290.788 457.099 289.538C456.612 288.289 456.426 284.625 456.618 283.274C456.811 281.923 455.37 278.847 455.37 278.847C455.37 278.847 455.37 274.992 454.692 274.127C454.014 273.262 453.251 267.087 453.251 267.087L448.636 249.748C448.636 249.748 446.709 239.249 445.941 236.937C445.172 234.624 444.206 235.105 444.206 235.105L441.433 247.531L439.314 268.727C438.252 271.13 438.714 276.727 438.714 276.727L439.386 284.914L438.27 298.98C438.267 299.004 438.267 299.028 438.27 299.052C438.269 299.188 438.3 299.321 438.361 299.442C438.421 299.563 438.509 299.668 438.618 299.749C440.512 304.011 441.075 308.747 440.233 313.335C432.916 323.936 424.057 318.44 424.057 318.44C423.864 316.02 423.28 313.646 422.328 311.413C420.69 307.365 422.616 290.992 422.616 290.992L421.17 280.391C421.17 280.391 421.074 274.031 420.786 273.184C420.498 272.337 420.594 266.054 420.594 266.054L420.786 259.406C418.283 250.925 419.531 237.537 419.531 237.537C419.531 237.537 419.147 216.149 419.921 215.182C420.48 214.486 420.125 211.314 420.366 209.026C420.391 208.331 420.585 207.653 420.93 207.05L421.026 206.954C422.28 205.41 422.28 199.248 422.178 196.834C422.13 195.56 423 193.494 423.829 191.836C424.429 190.671 424.975 189.71 425.179 189.362L425.263 189.224C425.263 189.224 430.749 190.575 445.286 197.512C447.89 198.802 450.682 199.667 453.557 200.077C454.988 200.268 456.437 200.29 457.873 200.143C460.064 199.932 462.183 199.243 464.079 198.125C465.082 197.553 465.987 196.825 466.762 195.969C466.564 196.569 466.684 198.623 466.762 199.849C466.798 200.407 466.84 200.786 466.84 200.786L468.443 207.933C468.704 208.78 468.904 209.646 469.043 210.522C469.157 211.158 469.253 211.849 469.343 212.582C470.465 221.723 469.865 237.129 469.865 237.129C469.865 237.129 472.266 258.228 471.12 259.189C469.973 260.15 470.922 263.43 470.922 263.43C471.793 265.31 472.316 267.333 472.464 269.4C472.456 271.014 472.854 272.605 473.623 274.025L473.232 283.562L474.241 304.253C474.241 304.253 476.552 310.061 475.009 312.278Z" fill="#8499F0"/>
        <path opacity="0.05" d="M463.719 277.4C463.719 277.4 471.012 273.196 472.602 275.088C474.193 276.98 463.719 277.4 463.719 277.4Z" fill="black"/>
        <path opacity="0.05" d="M468.125 279.712C468.125 279.712 466.924 280.313 469.571 281.082C472.218 281.851 468.125 279.712 468.125 279.712Z" fill="black"/>
        <path opacity="0.05" d="M424.027 268.151C423.781 268.223 430.095 272.415 435.797 268.943C435.773 268.943 425.449 267.718 424.027 268.151Z" fill="black"/>
        <path opacity="0.05" d="M435.485 276.169C435.485 276.169 433.756 279.568 430.215 280.073C426.674 280.577 435.485 276.169 435.485 276.169Z" fill="black"/>
        <path opacity="0.05" d="M458.665 283.544C458.665 283.544 466.972 296.758 465.382 299.875C463.791 302.992 458.665 283.544 458.665 283.544Z" fill="black"/>
        <path opacity="0.05" d="M444.656 203.404L443.792 229.273C443.792 229.273 448.918 229.057 449.794 220.534C450.67 212.011 451.313 205.068 451.313 205.068L444.656 203.404Z" fill="black"/>
        <path d="M444.368 202.828L443.504 228.696C443.504 228.696 448.63 228.48 449.506 219.951C450.382 211.422 451.036 204.491 451.036 204.491L444.368 202.828Z" fill="#8499F0"/>
        <path opacity="0.05" d="M433.972 203.987C433.972 203.987 429.927 214.84 420.672 209.585C420.696 208.89 420.89 208.211 421.236 207.609C423.769 208.672 429.639 210.227 432.04 203.188L433.972 203.987Z" fill="black"/>
        <path opacity="0.05" d="M433.684 202.828C433.684 202.828 429.639 213.681 420.384 208.425C420.409 207.731 420.603 207.053 420.948 206.449C423.481 207.518 429.351 209.068 431.752 202.035L433.684 202.828Z" fill="black"/>
        <path d="M433.684 203.404C433.684 203.404 429.639 214.257 420.384 209.002C420.409 208.307 420.603 207.629 420.948 207.026C423.481 208.095 429.351 209.645 431.752 202.611L433.684 203.404Z" fill="#8499F0"/>
        <path opacity="0.05" d="M469.097 213.158C458.929 217.999 455.202 206.588 455.202 206.588L457.603 206.66C458.023 213.957 466.06 211.993 468.815 211.098C468.911 211.759 469.007 212.425 469.097 213.158Z" fill="black"/>
        <path opacity="0.05" d="M469.673 212.293C459.512 217.128 455.778 205.717 455.778 205.717L458.179 205.789C458.599 213.086 466.636 211.128 469.391 210.233C469.487 210.87 469.583 211.561 469.673 212.293Z" fill="black"/>
        <path d="M469.385 212.582C459.223 217.417 455.49 206.005 455.49 206.005L457.891 206.077C458.311 213.38 466.348 211.416 469.103 210.522C469.199 211.158 469.295 211.849 469.385 212.582Z" fill="#8499F0"/>
        <path opacity="0.1" d="M433.684 203.404C433.684 203.404 429.639 214.257 420.384 209.002C420.409 208.307 420.603 207.629 420.948 207.026C423.481 208.095 429.351 209.645 431.752 202.611L433.684 203.404Z" fill="white"/>
        <path opacity="0.1" d="M469.385 212.582C459.223 217.417 455.49 206.005 455.49 206.005L457.891 206.077C458.311 213.38 466.348 211.416 469.103 210.522C469.199 211.158 469.295 211.849 469.385 212.582Z" fill="white"/>
        <path opacity="0.05" d="M442.273 336.086C442.273 336.825 442.273 337.516 442.201 338.086C441.985 340.759 435.413 339.75 435.413 339.75C429.411 340.585 427.25 337.702 426.536 334.945C426.311 334.049 426.2 333.129 426.206 332.206C426.202 331.656 426.238 331.106 426.314 330.56V330.014C426.95 329.822 427.625 329.791 428.277 329.924C428.928 330.057 429.537 330.35 430.047 330.777C432.718 332.945 436.259 331.281 436.259 331.281C436.259 331.281 438.858 331.497 439.861 332.362C440.425 332.849 441.355 331.678 442.063 330.56C442.105 331.281 442.171 332.584 442.213 333.978C442.261 334.693 442.273 335.413 442.273 336.086Z" fill="black"/>
        <path opacity="0.05" d="M431.734 335.93C431.734 335.93 429.933 337.696 426.536 334.969C426.311 334.073 426.2 333.153 426.206 332.23C427.94 333.551 431.157 335.93 431.734 335.93Z" fill="black"/>
        <path opacity="0.05" d="M442.273 336.086C442.127 336.199 441.959 336.281 441.779 336.327C441.6 336.372 441.413 336.381 441.231 336.352C441.048 336.322 440.873 336.256 440.717 336.157C440.561 336.057 440.427 335.927 440.323 335.774C441.023 335.241 441.667 334.637 442.243 333.972C442.261 334.693 442.273 335.413 442.273 336.086Z" fill="black"/>
        <path opacity="0.05" d="M456.36 337.323C456.36 338.068 456.36 338.759 456.426 339.323C456.642 342.002 463.215 340.987 463.215 340.987C469.217 341.828 471.378 338.945 472.092 336.182C472.446 334.748 472.521 333.26 472.314 331.798V331.251C471.676 331.062 471.001 331.033 470.349 331.166C469.697 331.299 469.088 331.59 468.575 332.014C465.904 334.182 462.369 332.518 462.369 332.518C462.369 332.518 459.77 332.741 458.767 333.606C458.203 334.092 457.273 332.921 456.57 331.804C456.528 332.524 456.456 333.828 456.414 335.221C456.366 335.924 456.354 336.645 456.36 337.323Z" fill="black"/>
        <path opacity="0.05" d="M466.9 337.155C466.9 337.155 468.701 338.921 472.092 336.194C472.318 335.301 472.431 334.383 472.428 333.461C470.688 334.777 467.47 337.155 466.9 337.155Z" fill="black"/>
        <path opacity="0.05" d="M456.36 337.323C456.506 337.436 456.674 337.518 456.853 337.564C457.032 337.609 457.218 337.618 457.4 337.588C457.583 337.559 457.757 337.493 457.912 337.393C458.068 337.294 458.202 337.164 458.305 337.011C457.604 336.479 456.96 335.875 456.384 335.209C456.366 335.924 456.354 336.645 456.36 337.323Z" fill="black"/>
        <path opacity="0.05" d="M448.438 152.899C448.438 152.899 439.194 178.431 442.754 180.647C446.313 182.863 448.438 152.899 448.438 152.899Z" fill="black"/>
        <path opacity="0.05" d="M455.178 145.018C455.178 145.018 453.437 153.499 454.308 154.268C455.178 155.037 455.178 145.018 455.178 145.018Z" fill="black"/>
        <path opacity="0.05" d="M473.845 164.773C473.845 164.773 462.483 175.368 463.251 176.238C464.019 177.109 473.845 164.773 473.845 164.773Z" fill="black"/>
        <path opacity="0.05" d="M482.53 141.451C478.226 142.766 468.167 145.841 468.053 145.817L468.611 143.523C470.201 142.13 472.698 142.13 472.698 142.13C473.715 141.108 474.546 139.917 475.153 138.61C475.204 138.396 475.302 138.196 475.441 138.026C475.58 137.856 475.756 137.719 475.955 137.626C476.155 137.534 476.372 137.488 476.592 137.492C476.812 137.496 477.028 137.549 477.224 137.649C477.95 137.021 478.741 136.471 479.583 136.009C480.741 135.409 482.086 136.61 482.086 136.61L482.23 141.042C482.23 141.042 482.344 141.205 482.53 141.451Z" fill="black"/>
        <path d="M482.53 140.886C478.226 142.202 468.167 145.277 468.053 145.247L468.611 142.958C470.201 141.565 472.698 141.565 472.698 141.565C473.715 140.544 474.546 139.353 475.153 138.045C475.204 137.831 475.302 137.632 475.441 137.461C475.58 137.291 475.756 137.154 475.955 137.062C476.155 136.969 476.372 136.923 476.592 136.927C476.812 136.931 477.028 136.985 477.224 137.084C477.949 136.454 478.74 135.905 479.583 135.445C480.741 134.844 482.086 136.045 482.086 136.045L482.23 140.484C482.23 140.484 482.344 140.628 482.53 140.886Z" fill="#D39999"/>
        <path opacity="0.05" d="M467.548 138.484C468.149 139.499 468.317 143.253 468.317 143.253L466.642 144.586L463.461 135.409L463.317 130.64L463.257 130.369L463.305 130.424C463.425 129.754 463.69 129.118 464.08 128.561C464.471 128.004 464.979 127.539 465.568 127.198L467.734 130.087L468.461 133.553C468.461 133.553 468.263 134.039 467.014 135C465.766 135.961 467.548 138.484 467.548 138.484Z" fill="black"/>
        <path d="M467.843 138.177C468.443 139.193 468.617 142.946 468.617 142.946L466.942 144.298L463.761 135.12L463.617 130.351L463.551 130.081L463.599 130.135C463.72 129.465 463.985 128.829 464.375 128.271C464.766 127.713 465.273 127.246 465.862 126.904L468.029 129.799L468.755 133.264C468.755 133.264 468.557 133.751 467.308 134.712C466.06 135.673 467.843 138.177 467.843 138.177Z" fill="#D39999"/>
        <path opacity="0.05" d="M489.066 122.477C489.065 125.049 488.302 127.562 486.873 129.7C485.445 131.838 483.415 133.503 481.04 134.487C478.666 135.47 476.053 135.727 473.533 135.224C471.012 134.722 468.697 133.483 466.881 131.664C465.064 129.845 463.827 127.528 463.326 125.006C462.825 122.484 463.083 119.87 464.067 117.494C465.05 115.118 466.716 113.088 468.853 111.659C470.989 110.231 473.502 109.468 476.071 109.468C477.782 109.454 479.479 109.78 481.063 110.429C482.646 111.078 484.085 112.036 485.294 113.247C486.504 114.458 487.46 115.898 488.108 117.482C488.756 119.067 489.081 120.765 489.066 122.477Z" fill="black"/>
        <path d="M489.066 121.895C489.067 124.468 488.306 126.984 486.878 129.125C485.449 131.265 483.419 132.933 481.043 133.919C478.667 134.904 476.053 135.162 473.531 134.66C471.008 134.159 468.691 132.92 466.873 131.1C465.054 129.28 463.816 126.961 463.314 124.437C462.813 121.913 463.071 119.297 464.056 116.92C465.04 114.542 466.708 112.51 468.846 111.081C470.985 109.652 473.5 108.89 476.071 108.891C477.781 108.882 479.475 109.212 481.056 109.862C482.636 110.512 484.073 111.469 485.281 112.679C486.49 113.888 487.447 115.325 488.096 116.907C488.746 118.489 489.076 120.185 489.066 121.895Z" fill="#F6BAC2"/>
        <path opacity="0.05" d="M489.066 121.895C489.07 124.278 488.416 126.617 487.175 128.652C486.983 128.309 486.869 127.913 486.677 127.565C486.407 127.078 485.783 126.67 485.321 126.964C485.127 127.122 484.98 127.33 484.895 127.565C484.516 128.363 483.844 129.162 482.962 129.144C482.578 129.103 482.216 128.947 481.922 128.696C481.629 128.445 481.418 128.112 481.317 127.739C481.132 126.988 481.099 126.208 481.221 125.444C481.353 123.883 481.377 122.081 480.219 121.03C479.471 120.483 478.616 120.1 477.71 119.907C476.828 119.618 475.909 119.162 475.549 118.309C475.309 117.709 475.369 117.072 475.153 116.507C474.93 116.055 474.601 115.663 474.195 115.364C473.788 115.065 473.316 114.868 472.818 114.79C471.671 115.738 470.218 116.235 468.731 116.189C467.368 116.157 466.016 115.943 464.709 115.552C466.11 113.037 468.306 111.057 470.952 109.925C473.598 108.792 476.545 108.57 479.331 109.293C482.116 110.017 484.584 111.645 486.345 113.922C488.107 116.199 489.064 118.997 489.066 121.877V121.895Z" fill="black"/>
        <path d="M475.153 115.943C475.369 116.543 475.309 117.192 475.549 117.745C475.903 118.597 476.828 119.054 477.71 119.342C478.615 119.535 479.47 119.915 480.219 120.459C481.377 121.516 481.353 123.318 481.221 124.88C481.099 125.643 481.132 126.424 481.317 127.174C481.419 127.546 481.631 127.879 481.924 128.13C482.217 128.38 482.579 128.537 482.962 128.58C483.844 128.58 484.516 127.799 484.895 127C484.98 126.765 485.128 126.558 485.321 126.399C485.783 126.093 486.407 126.502 486.677 127C486.866 127.52 487.127 128.011 487.451 128.46C487.665 128.644 487.921 128.773 488.196 128.836C488.471 128.899 488.757 128.893 489.03 128.82C489.573 128.671 490.078 128.409 490.513 128.051C491.715 127.213 492.669 126.066 493.274 124.73C493.568 124.062 493.705 123.336 493.675 122.607C493.645 121.878 493.448 121.166 493.099 120.525C492.649 119.769 491.935 119.162 491.653 118.327C491.161 116.892 492.085 115.414 492.655 114.009C493.202 112.723 493.378 111.311 493.165 109.931C493.055 109.243 492.808 108.585 492.44 107.994C492.073 107.403 491.591 106.891 491.023 106.489C488.742 104.969 485.657 105.804 483.016 105.072C482.071 104.761 481.15 104.382 480.261 103.936C478.913 103.337 477.504 102.886 476.059 102.591C474.625 102.303 472.89 102.267 471.984 103.414C471.736 103.782 471.515 104.167 471.324 104.567C471.041 105.042 470.665 105.456 470.22 105.784C469.775 106.112 469.268 106.348 468.731 106.477C467.957 106.663 467.146 106.615 466.33 106.729C465.932 106.757 465.545 106.875 465.199 107.073C464.853 107.272 464.556 107.547 464.331 107.876C463.935 108.597 464.103 109.474 464.199 110.279C464.295 111.084 464.247 112.045 463.599 112.543C463.293 112.777 462.873 112.892 462.687 113.222C462.601 113.416 462.583 113.632 462.634 113.838C462.685 114.043 462.803 114.226 462.969 114.357C463.306 114.613 463.699 114.785 464.115 114.862C465.608 115.328 467.156 115.593 468.719 115.648C470.298 115.7 471.836 115.133 473.004 114.069C472.902 114.171 472.242 114.129 472.122 114.123C473.286 114.249 474.715 114.766 475.153 115.943Z" fill="#7E646B"/>
        <g opacity="0.05">
        <path opacity="0.05" d="M491.251 126.592C490.815 126.949 490.311 127.213 489.768 127.366C489.496 127.437 489.211 127.441 488.937 127.377C488.663 127.313 488.409 127.184 488.196 127C487.868 126.553 487.605 126.062 487.415 125.541C487.145 125.054 486.521 124.646 486.059 124.94C485.868 125.101 485.722 125.307 485.633 125.541C485.261 126.339 484.582 127.138 483.7 127.12C483.317 127.08 482.955 126.923 482.662 126.672C482.37 126.421 482.16 126.087 482.062 125.715C481.874 124.964 481.84 124.184 481.96 123.42C482.098 121.859 482.116 120.063 480.963 119.006C480.213 118.459 479.356 118.076 478.448 117.883C477.572 117.594 476.648 117.138 476.287 116.285C476.047 115.684 476.107 115.048 475.891 114.483C475.537 113.528 474.535 113.006 473.557 112.765C472.405 113.707 470.956 114.206 469.469 114.171C467.906 114.11 466.358 113.844 464.865 113.378C464.45 113.301 464.058 113.131 463.719 112.88C463.649 112.815 463.587 112.742 463.533 112.663C463.268 112.777 463.036 112.957 462.861 113.186C462.775 113.38 462.757 113.596 462.808 113.802C462.859 114.007 462.977 114.19 463.143 114.321C463.48 114.577 463.873 114.749 464.289 114.826C465.782 115.292 467.33 115.557 468.893 115.612C470.377 115.652 471.826 115.155 472.974 114.213C473.953 114.453 474.961 114.97 475.315 115.925C475.531 116.525 475.471 117.174 475.711 117.727C476.071 118.579 476.99 119.036 477.872 119.324C478.777 119.516 479.632 119.897 480.381 120.441C481.539 121.498 481.515 123.3 481.383 124.862C481.261 125.625 481.294 126.406 481.479 127.156C481.581 127.528 481.793 127.861 482.086 128.112C482.379 128.362 482.741 128.519 483.124 128.562C484.006 128.562 484.678 127.781 485.057 126.982C485.143 126.747 485.29 126.54 485.483 126.381C485.945 126.075 486.569 126.484 486.839 126.982C487.028 127.504 487.291 127.995 487.62 128.442C487.832 128.626 488.087 128.755 488.361 128.818C488.635 128.881 488.921 128.875 489.192 128.802C489.735 128.653 490.24 128.391 490.675 128.033C491.877 127.195 492.831 126.048 493.436 124.712C493.542 124.455 493.629 124.19 493.694 123.919C493.079 124.974 492.246 125.885 491.251 126.592Z" fill="black"/>
        <path opacity="0.05" d="M492.451 114.808C492.577 114.531 492.697 114.255 492.811 113.985C492.925 113.714 492.967 113.564 493.034 113.348C492.813 113.823 492.618 114.311 492.451 114.808Z" fill="black"/>
        <path opacity="0.05" d="M464.385 111.03C464.985 110.519 465.027 109.606 464.931 108.819C464.861 108.36 464.823 107.897 464.817 107.432C464.689 107.557 464.578 107.698 464.487 107.852C464.091 108.573 464.259 109.45 464.355 110.255C464.387 110.512 464.397 110.771 464.385 111.03Z" fill="black"/>
        </g>
        <path opacity="0.05" d="M466.75 200.443C465.634 200.521 464.067 200.605 462.182 200.671C460.874 200.714 459.41 200.744 457.843 200.744C456.474 200.744 455.028 200.744 453.527 200.677C448.781 200.555 444.052 200.067 439.38 199.218C433.144 198.017 427.376 195.945 423.775 192.437C424.375 191.272 424.921 190.305 425.125 189.962C425.125 189.626 425.125 189.236 425.089 188.815C431.422 191.818 451.163 200.161 466.294 195.422C466.294 195.921 466.366 196.251 466.366 196.251L466.708 196.539C466.534 197.164 466.642 199.218 466.75 200.443Z" fill="black"/>
        <path d="M466.75 199.867C465.634 199.945 464.067 200.029 462.182 200.089C460.874 200.137 459.41 200.161 457.843 200.161C456.474 200.161 455.028 200.161 453.527 200.095C448.781 199.974 444.052 199.488 439.38 198.641C433.144 197.44 427.376 195.362 423.775 191.854C424.375 190.689 424.921 189.728 425.125 189.38C425.125 189.044 425.125 188.659 425.089 188.233C431.422 191.236 451.163 199.584 466.294 194.87C466.294 195.368 466.366 195.698 466.366 195.698L466.708 195.987C466.534 196.587 466.642 198.641 466.75 199.867Z" fill="#4B4442"/>
        <path d="M167.177 462.738C166.458 461.871 165.923 460.866 165.606 459.784C165.289 458.703 165.197 457.568 165.335 456.449L191.828 239.525L194.025 221.507C194.271 219.502 195.238 217.656 196.744 216.312C198.25 214.968 200.194 214.219 202.212 214.203L279.814 213.687C280.919 213.68 282.011 213.453 283.027 213.018C284.043 212.583 284.962 211.949 285.73 211.154C286.498 210.36 287.1 209.419 287.5 208.388C287.9 207.358 288.091 206.257 288.06 205.152L288.03 204.329C287.993 203.215 288.179 202.104 288.579 201.063C288.98 200.022 289.585 199.072 290.359 198.27C291.134 197.468 292.062 196.83 293.088 196.395C294.114 195.959 295.217 195.735 296.331 195.734H377.876C380.075 195.734 382.184 196.607 383.74 198.161C385.296 199.715 386.173 201.823 386.177 204.023C386.177 204.396 386.153 204.77 386.105 205.14C385.951 206.296 386.041 207.472 386.371 208.59C386.7 209.709 387.262 210.746 388.018 211.633C388.774 212.52 389.709 213.238 390.761 213.74C391.813 214.242 392.959 214.516 394.124 214.546L472.44 216.546C473.631 216.575 474.802 216.861 475.872 217.383C476.943 217.906 477.888 218.653 478.645 219.574C479.401 220.495 479.95 221.568 480.255 222.72C480.56 223.872 480.613 225.077 480.411 226.252L441.259 455.086L440.521 459.41C440.338 460.515 439.93 461.57 439.32 462.509L167.177 462.738Z" fill="#B7B6CC"/>
        <g opacity="0.5">
        <path opacity="0.5" d="M402.846 148.02L313.176 277.898L352.859 305.333L442.529 175.455L402.846 148.02Z" fill="url(#paint2_linear)"/>
        </g>
        <path d="M441.244 175.86L403.516 149.777L315.047 277.915L352.774 303.998L441.244 175.86Z" fill="#F9FAFB"/>
        <path d="M432.816 174.338L406.234 155.848L387.756 182.448L414.338 200.939L432.816 174.338Z" fill="#F7B643"/>
        <path opacity="0.5" d="M412.081 206.343L385.41 187.904L366.984 214.593L393.655 233.032L412.081 206.343Z" fill="#F7B643"/>
        <path opacity="0.3" d="M389.829 238.565L363.158 220.126L344.731 246.815L371.402 265.254L389.829 238.565Z" fill="#F7B643"/>
        <g opacity="0.5">
        <path opacity="0.5" d="M348.986 140.288L304.902 291.245L351.198 304.784L395.283 153.827L348.986 140.288Z" fill="url(#paint3_linear)"/>
        </g>
        <path d="M394.227 154.623L350.212 141.752L306.719 290.68L350.735 303.551L394.227 154.623Z" fill="#F9FAFB"/>
        <path d="M387.106 155.15L355.99 146.051L346.897 177.188L378.013 186.287L387.106 155.15Z" fill="#F97878"/>
        <path opacity="0.5" d="M376.127 192.74L345.011 183.641L335.918 214.778L367.034 223.877L376.127 192.74Z" fill="#F97878"/>
        <path opacity="0.3" d="M365.149 230.325L334.033 221.226L324.94 252.363L356.056 261.462L365.149 230.325Z" fill="#F97878"/>
        <g opacity="0.5">
        <path opacity="0.5" d="M317.588 142.912L304.984 299.677L353.061 303.547L365.666 146.783L317.588 142.912Z" fill="url(#paint4_linear)"/>
        </g>
        <path d="M364.742 147.78L319.033 144.1L306.598 298.757L352.306 302.437L364.742 147.78Z" fill="#F9FAFB"/>
        <path d="M357.851 149.743L325.538 147.142L322.939 179.476L355.252 182.078L357.851 149.743Z" fill="#73B53B"/>
        <path opacity="0.5" d="M354.709 188.772L322.396 186.17L319.796 218.505L352.109 221.107L354.709 188.772Z" fill="#73B53B"/>
        <path opacity="0.3" d="M351.572 227.813L319.259 225.211L316.659 257.546L348.973 260.148L351.572 227.813Z" fill="#73B53B"/>
        <g opacity="0.5">
        <path opacity="0.5" d="M345.022 147.137L296.839 149.335L303.996 306.442L352.179 304.245L345.022 147.137Z" fill="url(#paint5_linear)"/>
        </g>
        <path d="M344.278 148.229L298.469 150.318L305.53 305.314L351.339 303.225L344.278 148.229Z" fill="white"/>
        <path d="M337.682 151.033L305.298 152.51L306.774 184.915L339.158 183.438L337.682 151.033Z" fill="#2DC2BD"/>
        <path opacity="0.5" d="M340.767 188.769L308.35 190.391L309.971 222.83L342.388 221.208L340.767 188.769Z" fill="#2DC2BD"/>
        <path opacity="0.3" d="M341.245 229.278L308.861 230.755L310.337 263.16L342.721 261.683L341.245 229.278Z" fill="#2DC2BD"/>
        <path d="M317.921 354.789L277.179 370.561L217.631 393.595C215.381 389.391 212.067 383.709 207.968 376.928C193.863 353.54 170.527 317.161 149.747 285.19C126.339 249.153 106.19 218.744 106.19 218.744L120.775 214.54L239.917 179.926L317.921 354.789Z" fill="#E6ECF8"/>
        <path opacity="0.1" d="M317.921 354.789L277.179 370.561C254.419 375.306 231.193 377.442 207.95 376.928C193.845 353.54 170.509 317.161 149.729 285.19L120.781 214.516L239.917 179.926L317.921 354.789Z" fill="black"/>
        <path d="M348.232 344.975C348.232 344.975 284.939 382.442 190.442 373.967L115.109 190.179L151.212 183.968L276.02 162.52L346.845 341.402L348.232 344.975Z" fill="#2DC2BD"/>
        <path opacity="0.1" d="M346.821 341.426C331.918 342.158 314.674 342.086 297.328 340.014C278.553 337.804 259.67 333.251 243.483 324.903C229.948 317.93 218.376 310.344 208.286 301.244C182.039 277.622 165.797 243.832 151.212 183.992L276.02 162.544L346.821 341.426Z" fill="black"/>
        <path d="M393.254 331.149C393.254 331.149 346.599 340.29 299.11 334.663C280.336 332.452 261.453 327.9 245.265 319.551C231.73 312.578 220.164 304.992 210.069 295.893C177.585 266.649 160.431 221.831 142.743 131.324C142.743 131.324 220.302 150.058 296.998 109.024C296.974 109.054 322.825 270.487 393.254 331.149Z" fill="#F9FAFB"/>
        <path opacity="0.1" d="M299.11 334.663C280.336 332.452 261.453 327.9 245.265 319.551C231.73 312.578 220.164 304.992 210.069 295.893C237.727 293.647 241.7 278.517 241.7 278.517C262.203 311.076 299.11 334.663 299.11 334.663Z" fill="black"/>
        <path opacity="0.3" d="M182.861 164.55C182.861 164.55 245.931 160.983 263.542 147.379L266.213 155.968C266.213 155.968 224.54 174.365 182.861 174.587V164.55Z" fill="#2DC2BD"/>
        <path opacity="0.3" d="M182.861 206.954C182.861 206.954 243.927 203.608 290.065 181.308L291.626 184.875C291.626 184.875 255.013 206.263 182.861 211.861V206.954Z" fill="#2DC2BD"/>
        <path opacity="0.3" d="M187.777 223.477C187.777 223.477 248.843 220.131 294.975 197.831L296.536 201.398C296.536 201.398 259.923 222.78 187.777 228.384V223.477Z" fill="#2DC2BD"/>
        <path opacity="0.3" d="M192.687 240.024C192.687 240.024 253.752 236.678 299.891 214.377L301.445 217.945C301.445 217.945 264.832 239.333 192.687 244.931V240.024Z" fill="#2DC2BD"/>
        <path opacity="0.3" d="M197.602 256.571C197.602 256.571 258.668 253.225 304.8 230.924L306.361 234.492C306.361 234.492 269.748 255.88 197.602 261.478V256.571Z" fill="#2DC2BD"/>
        <path opacity="0.3" d="M202.512 273.124C202.512 273.124 263.578 269.778 309.716 247.477L311.271 251.045C311.271 251.045 274.658 272.427 202.512 278.031V273.124Z" fill="#2DC2BD"/>
        <path d="M631.887 478.576C631.887 478.576 606.51 477.044 609.499 494.841C609.499 494.841 608.899 497.982 611.756 499.411C611.756 499.411 611.798 498.09 614.355 498.54C615.266 498.694 616.193 498.738 617.116 498.673C618.36 498.589 619.543 498.1 620.483 497.279C620.483 497.279 627.619 494.33 630.392 482.666C630.392 482.666 632.445 480.12 632.361 479.465L628.082 481.267C628.082 481.267 629.546 484.36 628.394 486.925C628.394 486.925 628.256 481.381 627.433 481.519C627.265 481.519 625.207 482.588 625.207 482.588C625.207 482.588 627.721 487.994 625.807 491.886C625.807 491.886 626.527 485.249 624.402 482.978L621.401 484.738C621.401 484.738 624.342 490.3 622.35 494.841C622.35 494.841 622.86 487.879 620.765 485.165L618.034 487.297C618.034 487.297 620.801 492.78 619.114 496.546C619.114 496.546 618.892 488.438 617.44 487.825C617.44 487.825 615.039 489.934 614.691 490.829C614.691 490.829 616.581 494.805 615.405 496.907C615.405 496.907 614.685 491.501 614.097 491.501C614.097 491.501 611.696 495.105 611.468 497.507C611.468 497.507 611.57 493.856 613.52 491.135C612.146 491.397 610.878 492.055 609.871 493.027C609.871 493.027 610.243 490.492 614.109 490.276C614.109 490.276 616.077 487.561 616.599 487.393C616.599 487.393 612.758 487.075 610.429 488.108C610.429 488.108 612.482 485.705 617.308 486.804L620.003 484.606C620.003 484.606 614.943 483.909 612.8 484.678C612.8 484.678 615.267 482.564 620.729 484.078L623.664 482.324C623.664 482.324 619.354 481.393 616.786 481.723C616.786 481.723 619.493 480.258 624.528 481.843L626.623 480.9C626.623 480.9 623.466 480.3 622.542 480.18C621.617 480.059 621.563 479.831 621.563 479.831C623.565 479.493 625.621 479.722 627.499 480.492C627.499 480.492 631.959 478.858 631.887 478.576Z" fill="#2DC2BD"/>
        <path opacity="0.1" d="M614.409 504C624.327 504 632.367 502.639 632.367 500.961C632.367 499.282 624.327 497.922 614.409 497.922C604.49 497.922 596.45 499.282 596.45 500.961C596.45 502.639 604.49 504 614.409 504Z" fill="#2DC2BD"/>
        <path opacity="0.1" d="M488.424 495.165C522.236 495.165 549.646 492.68 549.646 489.615C549.646 486.55 522.236 484.066 488.424 484.066C454.612 484.066 427.202 486.55 427.202 489.615C427.202 492.68 454.612 495.165 488.424 495.165Z" fill="#2DC2BD"/>
        <path d="M643.705 419.83C643.705 419.83 629.402 418.965 631.101 429.001C631.013 429.509 631.088 430.032 631.316 430.495C631.543 430.958 631.911 431.337 632.367 431.578C632.367 431.578 632.397 430.833 633.838 431.085C634.351 431.17 634.873 431.194 635.392 431.157C636.093 431.112 636.759 430.838 637.289 430.377C637.289 430.377 641.31 428.713 642.877 422.136C642.877 422.136 644.035 420.701 643.987 420.334L641.586 421.361C641.586 421.361 642.408 423.109 641.76 424.557C641.76 424.557 641.682 421.427 641.22 421.5C641.124 421.5 639.966 422.1 639.966 422.1C639.966 422.1 641.382 425.103 640.314 427.344C640.314 427.344 640.722 423.602 639.521 422.316L637.823 423.313C637.823 423.313 639.479 426.449 638.357 429.007C638.357 429.007 638.645 425.079 637.463 423.554L635.926 424.755C635.926 424.755 637.481 427.848 636.526 429.968C636.526 429.968 636.4 425.398 635.584 425.055C635.001 425.55 634.479 426.112 634.03 426.731C634.03 426.731 635.098 428.977 634.438 430.16C634.438 430.16 634.03 427.115 633.699 427.103C633.699 427.103 632.355 429.115 632.217 430.497C632.282 429.215 632.681 427.973 633.375 426.893C632.599 427.039 631.883 427.411 631.317 427.962C631.317 427.962 631.527 426.533 633.717 426.413C633.717 426.413 634.828 424.881 635.122 424.785C635.122 424.785 632.955 424.605 631.641 425.187C631.641 425.187 632.799 423.842 635.518 424.455L637.043 423.211C637.043 423.211 634.186 422.821 632.979 423.253C632.979 423.253 634.372 422.052 637.451 422.929L639.107 421.938C637.833 421.659 636.527 421.548 635.224 421.608C635.224 421.608 636.755 420.779 639.588 421.674L640.788 421.145C640.788 421.145 638.987 420.791 638.483 420.737C637.979 420.683 637.931 420.539 637.931 420.539C639.06 420.351 640.22 420.479 641.28 420.911C641.28 420.911 643.753 419.986 643.705 419.83Z" fill="#2DC2BD"/>
        <path opacity="0.1" d="M633.862 434.16C639.454 434.16 643.987 433.394 643.987 432.449C643.987 431.503 639.454 430.737 633.862 430.737C628.269 430.737 623.736 431.503 623.736 432.449C623.736 433.394 628.269 434.16 633.862 434.16Z" fill="#2DC2BD"/>
        <path d="M559.267 428.539C559.267 428.539 541.993 427.494 544.034 439.608C543.928 440.222 544.019 440.854 544.294 441.413C544.569 441.972 545.013 442.429 545.564 442.719C545.564 442.719 545.564 441.818 547.365 442.119C547.985 442.224 548.616 442.254 549.243 442.209C550.091 442.152 550.896 441.819 551.536 441.26C551.536 441.26 556.392 439.254 558.283 431.314C558.283 431.314 559.681 429.584 559.621 429.133L556.674 430.383C556.674 430.383 557.67 432.485 556.884 434.233C556.884 434.233 556.788 430.461 556.23 430.545C556.116 430.545 554.717 431.278 554.717 431.278C554.717 431.278 556.428 434.941 555.138 437.608C555.138 437.608 555.63 433.091 554.183 431.542L552.13 432.743C552.13 432.743 554.129 436.533 552.773 439.62C552.773 439.62 553.121 434.881 551.698 433.013L549.838 434.467C549.838 434.467 551.722 438.197 550.57 440.761C550.57 440.761 550.426 435.242 549.436 434.827C549.436 434.827 547.809 436.263 547.563 436.851C547.563 436.851 548.847 439.56 548.049 440.989C548.049 440.989 547.557 437.314 547.155 437.296C547.155 437.296 545.54 439.734 545.354 441.398C545.435 439.855 545.917 438.36 546.753 437.061C545.818 437.24 544.956 437.689 544.274 438.353C544.274 438.353 544.526 436.629 547.155 436.479C547.155 436.479 548.493 434.629 548.853 434.521C548.853 434.521 546.236 434.299 544.652 435.001C544.652 435.001 546.044 433.38 549.327 434.118L551.164 432.617C551.164 432.617 547.725 432.148 546.26 432.665C546.26 432.665 547.941 431.229 551.662 432.281L553.661 431.079C553.661 431.079 550.726 430.449 548.973 430.677C548.973 430.677 550.822 429.68 554.243 430.761L555.672 430.118C555.672 430.118 553.523 429.698 552.893 429.632C552.263 429.566 552.232 429.392 552.232 429.392C553.594 429.161 554.993 429.315 556.272 429.836C556.272 429.836 559.321 428.725 559.267 428.539Z" fill="#2DC2BD"/>
        <path opacity="0.1" d="M547.371 445.842C554.123 445.842 559.597 444.917 559.597 443.776C559.597 442.635 554.123 441.71 547.371 441.71C540.618 441.71 535.144 442.635 535.144 443.776C535.144 444.917 540.618 445.842 547.371 445.842Z" fill="#2DC2BD"/>
        <path opacity="0.1" d="M32.8016 494.943C42.7198 494.943 50.76 493.582 50.76 491.904C50.76 490.225 42.7198 488.864 32.8016 488.864C22.8835 488.864 14.8433 490.225 14.8433 491.904C14.8433 493.582 22.8835 494.943 32.8016 494.943Z" fill="#2DC2BD"/>
        <path d="M20.7434 477.783C20.7434 477.783 30.9831 477.471 34.0742 475.273C37.1653 473.074 49.8298 470.468 50.598 473.969C51.3663 477.471 65.9935 491.519 54.4274 491.615C42.8613 491.711 27.5558 489.813 24.4707 487.934C21.3856 486.054 20.7434 477.783 20.7434 477.783Z" fill="#A8A8A8"/>
        <path opacity="0.2" d="M54.6314 490.384C43.0653 490.48 27.7599 488.582 24.6748 486.702C22.334 485.273 21.3976 480.138 21.0735 477.771H20.7314C20.7314 477.771 21.3796 486.042 24.4587 487.922C27.5378 489.801 42.8913 491.705 54.4274 491.645C57.7646 491.615 58.917 490.444 58.857 488.642C58.3888 489.699 57.1163 490.366 54.6314 490.384Z" fill="black"/>
        <path d="M505.667 -0.000316073L473.995 97.484L648.33 154.2L680.002 56.7161L505.667 -0.000316073Z" fill="url(#paint6_linear)"/>
        <path d="M506.652 1.0655L475.416 97.2076L647.342 153.14L678.578 56.9983L506.652 1.0655Z" fill="#F6F7F9"/>
        <g opacity="0.2">
        <path opacity="0.2" d="M525.151 73.1128C535.546 73.1128 543.974 64.68 543.974 54.2776C543.974 43.8751 535.546 35.4423 525.151 35.4423C514.755 35.4423 506.328 43.8751 506.328 54.2776C506.328 64.68 514.755 73.1128 525.151 73.1128Z" fill="#2DC2BD"/>
        </g>
        <g opacity="0.2">
        <path opacity="0.2" d="M571.78 45.9802L570.186 50.8867L648.175 76.2589L649.769 71.3524L571.78 45.9802Z" fill="#2DC2BD"/>
        </g>
        <g opacity="0.2">
        <path opacity="0.2" d="M567.715 58.4896L566.121 63.3961L605.849 76.3209L607.443 71.4143L567.715 58.4896Z" fill="#2DC2BD"/>
        </g>
        <g opacity="0.2">
        <path opacity="0.2" d="M563.644 71.007L562.05 75.9134L626.305 96.8177L627.899 91.9112L563.644 71.007Z" fill="#2DC2BD"/>
        </g>
        <g opacity="0.2">
        <path opacity="0.2" d="M559.58 83.5195L557.986 88.4259L635.975 113.798L637.569 108.892L559.58 83.5195Z" fill="#2DC2BD"/>
        </g>
        <g opacity="0.5">
        <path opacity="0.5" d="M610.119 119.938L607.037 129.425L628.619 136.447L631.701 126.959L610.119 119.938Z" fill="#2DC2BD"/>
        </g>
        <path d="M561.182 290.073C561.173 289.872 561.153 289.671 561.122 289.472C561.122 289.262 561.056 289.052 561.02 288.872C560.942 288.463 560.858 288.061 560.762 287.671C560.713 287.484 560.665 287.292 560.611 287.112C560.043 284.981 559.019 283 557.61 281.304C557.532 281.208 557.448 281.118 557.37 281.028C557.292 280.938 557.046 280.679 556.884 280.517C556.722 280.355 556.572 280.211 556.416 280.073C556.26 279.935 556.116 279.808 555.972 279.688C555.684 279.454 555.414 279.256 555.18 279.088C554.945 278.92 554.837 278.859 554.693 278.775C554.35 278.57 553.964 278.445 553.565 278.409L551.074 278.163L547.671 277.826L535.505 273.1L535.024 273.268C534.668 272.285 534.367 271.282 534.124 270.265C534.493 270.105 534.821 269.865 535.084 269.562C535.371 269.339 535.598 269.048 535.745 268.715C536.051 268.006 535.463 266.499 535.583 265.634C535.775 264.247 536.495 262.907 537.083 261.652C538.332 258.955 539.244 256.03 539.094 253.069C538.944 250.108 537.593 247.105 535.096 245.453C533.806 244.594 532.287 244.138 530.943 243.357C529.899 242.757 528.98 241.952 527.984 241.267C525.533 239.632 522.701 238.662 519.763 238.452C516.826 238.241 513.884 238.797 511.226 240.066C508.699 241.309 506.544 243.171 504.161 244.666C501.779 246.162 498.97 247.309 496.179 246.865C496.14 246.978 496.112 247.095 496.095 247.213L495.86 247.183C495.38 248.492 496.557 249.79 497.661 250.685C499.72 252.384 502.055 254.078 504.738 254.138C505.776 254.138 506.874 253.94 507.817 254.366C508.031 254.461 508.233 254.582 508.417 254.727C507.82 257.122 507.896 259.635 508.637 261.99C509.379 264.344 510.757 266.447 512.618 268.066L506.406 265.832C506.406 265.832 506.148 265.964 505.746 266.217L497.127 260.475C497.127 260.475 479.847 254.204 475.045 263.97C470.243 273.736 495.854 268.697 495.854 268.697L501.334 271.7C501.15 272.834 501.362 273.996 501.935 274.992L516.874 284.229C513.873 285.16 508.897 286.631 508.015 286.631C506.736 286.631 503.213 287.893 500.974 292.932C498.735 297.971 490.729 322.554 483.688 326.65C476.648 330.747 458.083 358.165 458.083 358.165L458.167 358.381C457.837 358.471 457.513 358.561 457.195 358.669C453.296 360.023 449.922 362.57 447.549 365.949C447.235 366.386 447.04 366.898 446.985 367.434C446.929 367.97 447.015 368.512 447.234 369.004C447.452 369.497 447.796 369.923 448.23 370.242C448.665 370.56 449.175 370.76 449.71 370.82C457.039 371.751 461.042 368.369 462.969 365.817C463.095 365.654 463.209 365.492 463.317 365.33C463.887 365.575 464.527 365.605 465.118 365.414L474.079 358.165C474.079 358.165 467.068 365.072 471.18 371.378L470.868 371.817C463.937 381.717 458.854 392.791 455.862 404.502C455.862 404.502 452.021 407.337 451.703 418.683C451.385 430.028 447.537 448.305 447.537 448.305C447.537 448.305 444.98 470.053 446.577 476.666C446.577 476.666 446.763 476.93 447.105 477.333C446.985 477.477 446.853 477.633 446.709 477.789C445.31 479.303 442.79 481.393 439.855 480.792C435.377 479.843 435.377 487.723 441.775 488.354C445.899 488.756 454.002 490.6 459.253 491.862C459.826 492.006 460.424 492.011 460.998 491.875C461.573 491.739 462.106 491.467 462.553 491.082C463 490.697 463.348 490.21 463.568 489.662C463.788 489.114 463.872 488.521 463.815 487.934C463.503 485.111 462.933 481.693 461.894 479.261C461.828 479.111 461.762 478.96 461.696 478.822C461.882 478.642 462.074 478.462 462.261 478.27C462.261 478.27 462.261 464.401 464.505 460.624C464.505 460.624 470.585 431.944 470.261 424.695C470.015 419.025 486.041 396.94 493.015 387.613L492.955 387.258C494.756 384.856 495.872 383.415 495.872 383.415L501.268 417.77C501.268 417.77 503.831 425.331 507.03 429.428C507.03 429.428 520.793 455.584 522.396 463.777C523.596 469.993 526.105 473.663 527.246 475.08L526.831 475.477C525.373 476.816 523.23 478.156 520.793 477.645C516.316 476.696 516.316 484.576 522.714 485.207C526.837 485.615 534.94 487.459 540.186 488.72C540.759 488.865 541.358 488.869 541.933 488.733C542.508 488.597 543.042 488.325 543.49 487.939C543.938 487.554 544.286 487.066 544.506 486.517C544.726 485.968 544.811 485.375 544.754 484.786C544.388 481.507 543.673 477.429 542.293 475.02C542.181 474.814 542.059 474.613 541.927 474.42C542.415 474.225 542.851 473.918 543.199 473.525C543.199 473.525 534.874 453.668 534.874 448.299C534.874 448.299 531.357 427.818 519.515 420.256C519.515 420.256 520.631 394.634 524.004 380.375C524.088 380.027 524.173 379.679 524.257 379.342C527.4 378.851 530.517 378.201 533.596 377.396L533.914 367.943L535.517 375.504L553.439 364.477C553.439 364.477 553.283 362.489 552.983 359.444C552.827 357.918 552.641 356.129 552.419 354.189C552.238 352.639 552.034 350.993 551.818 349.312C551.758 348.891 551.704 348.465 551.644 348.044C551.41 346.345 551.152 344.627 550.876 342.945C550.768 342.312 550.66 341.688 550.552 341.071C550.402 340.248 550.252 339.444 550.096 338.669C550.018 338.278 549.934 337.888 549.856 337.51C549.778 337.131 549.688 336.753 549.604 336.386C549.52 336.02 549.435 335.666 549.351 335.311C549.303 335.137 549.261 334.963 549.219 334.795C549.129 334.452 549.039 334.116 548.949 333.792C548.574 332.444 548.356 331.057 548.301 329.659C548.301 329.107 548.301 328.548 548.301 327.996C548.301 327.443 548.385 326.891 548.463 326.338C548.499 326.068 548.547 325.792 548.601 325.521C548.805 324.423 549.108 323.345 549.508 322.302C549.706 321.779 549.934 321.263 550.18 320.752C550.78 319.551 551.38 318.272 552.016 316.908C552.341 316.23 552.665 315.533 552.989 314.824C553.313 314.116 553.643 313.395 553.973 312.662C557.088 305.713 560.161 297.971 560.984 292.884C561.068 292.349 561.134 291.845 561.164 291.37C561.199 290.939 561.205 290.505 561.182 290.073Z" fill="url(#paint7_linear)"/>
        <path d="M507.721 271.22L497.163 264.078C497.163 264.078 480.399 257.862 475.741 267.496C471.084 277.13 495.92 272.157 495.92 272.157L506.478 278.055L507.721 271.22Z" fill="#AE6E79"/>
        <path d="M447.784 245.471L393.177 330.472L525.413 415.538L580.02 330.537L447.784 245.471Z" fill="#F9FAFB"/>
        <path d="M428.093 300.412L412.772 324.543L418.446 328.15L433.767 304.02L428.093 300.412Z" fill="#B7B6CC"/>
        <path d="M464.557 276.435L430.908 329.431L436.111 332.739L469.76 279.743L464.557 276.435Z" fill="#B7B6CC"/>
        <path d="M475.671 283.495L442.023 336.491L447.225 339.799L480.874 286.803L475.671 283.495Z" fill="#B7B6CC"/>
        <path d="M486.783 290.566L453.134 343.562L458.337 346.87L491.986 293.874L486.783 290.566Z" fill="#B7B6CC"/>
        <path d="M498.515 301.066L464.632 353.808L469.81 357.139L503.693 304.397L498.515 301.066Z" fill="#B7B6CC"/>
        <path d="M509.008 304.695L475.359 357.691L480.562 360.999L514.211 308.002L509.008 304.695Z" fill="white"/>
        <path d="M520.122 311.755L486.473 364.751L491.676 368.059L525.325 315.063L520.122 311.755Z" fill="white"/>
        <path d="M541.848 320.923L533.135 334.646L546.849 343.365L555.562 329.642L541.848 320.923Z" fill="#B7B6CC"/>
        <path d="M538.95 489.027C533.854 487.783 525.997 485.969 522 485.567C515.788 484.966 515.788 477.159 520.139 478.107C522.492 478.618 524.581 477.291 525.991 475.975C526.419 475.563 526.82 475.124 527.192 474.66C527.705 474.035 528.413 473.602 529.202 473.429C531.531 472.924 536.405 472.155 539.352 473.759C540.041 474.188 540.598 474.799 540.96 475.525C542.299 477.927 542.995 481.921 543.361 485.135C543.423 485.708 543.346 486.288 543.138 486.825C542.929 487.362 542.595 487.842 542.162 488.223C541.73 488.605 541.213 488.877 540.654 489.016C540.095 489.156 539.51 489.16 538.95 489.027Z" fill="#BEBED0"/>
        <path d="M460.4 492.132C455.31 490.889 447.453 489.075 443.456 488.672C437.244 488.072 437.244 480.264 441.589 481.219C444.434 481.819 446.883 479.771 448.234 478.282C448.402 478.101 448.552 477.927 448.678 477.765C449.194 477.153 449.899 476.73 450.682 476.564C453.011 476.053 457.885 475.285 460.838 476.894C461.714 477.363 462.411 478.396 462.969 479.735C463.971 482.138 464.523 485.501 464.829 488.282C464.885 488.854 464.802 489.431 464.59 489.964C464.377 490.498 464.04 490.973 463.606 491.349C463.173 491.726 462.656 491.994 462.098 492.13C461.54 492.266 460.958 492.267 460.4 492.132Z" fill="#BEBED0"/>
        <path opacity="0.1" d="M462.969 479.711C455.556 487.357 449.2 479.567 448.234 478.282C448.402 478.101 448.552 477.927 448.678 477.765C449.194 477.153 449.899 476.73 450.682 476.564C453.011 476.053 457.885 475.285 460.838 476.894C461.714 477.339 462.441 478.372 462.969 479.711Z" fill="black"/>
        <path opacity="0.1" d="M540.991 475.525C537.779 477.717 526.97 477.177 526.97 477.177C526.613 476.802 526.286 476.4 525.991 475.975C526.419 475.563 526.82 475.124 527.192 474.66C527.705 474.035 528.413 473.602 529.202 473.429C531.531 472.924 536.405 472.155 539.352 473.759C540.052 474.183 540.62 474.795 540.991 475.525Z" fill="black"/>
        <path d="M541.561 474.071C539.382 476.87 526.969 476.246 526.969 476.246C526.969 476.246 523.242 472.516 521.688 464.443C520.133 456.371 506.784 430.581 506.784 430.581C503.681 426.539 501.196 419.085 501.196 419.085L495.92 385.222C495.92 385.222 470.465 418.773 470.778 425.92C471.09 433.067 465.184 461.356 465.184 461.356C463.011 465.086 463.011 478.774 463.011 478.774C454.944 487.183 448.113 477.219 448.113 477.219C446.559 470.696 449.044 449.26 449.044 449.26C449.044 449.26 452.771 431.241 453.077 420.058C453.383 408.875 457.117 406.082 457.117 406.082C460.016 394.554 464.954 383.639 471.696 373.853C473.568 371.168 474.811 369.733 474.811 369.733L525.103 375.637C524.138 377.772 523.414 380.008 522.942 382.303C519.671 396.358 518.584 421.614 518.584 421.614C530.073 429.067 533.488 449.242 533.488 449.242C533.488 454.497 541.561 474.071 541.561 474.071Z" fill="#5C5C8E"/>
        <g opacity="0.05">
        <path opacity="0.05" d="M493.153 389.361L492.505 385.222C492.505 385.222 467.05 418.773 467.362 425.92C467.674 433.067 461.774 461.356 461.774 461.356C459.596 465.086 459.596 478.774 459.596 478.774C458.296 480.242 456.615 481.321 454.74 481.891C457.183 482.534 460.142 482.06 463.323 478.774C463.323 478.774 463.323 465.104 465.496 461.356C465.496 461.356 471.396 433.085 471.084 425.92C470.844 420.328 486.383 398.55 493.153 389.361Z" fill="black"/>
        <path opacity="0.05" d="M533.794 449.218C533.794 449.218 530.379 429.025 518.897 421.59C518.897 421.59 519.983 396.334 523.248 382.279C523.722 379.984 524.448 377.748 525.415 375.613L475.123 369.721C475.123 369.721 475.003 369.853 474.787 370.117L521.688 375.625C520.723 377.76 519.999 379.996 519.527 382.291C516.256 396.346 515.169 421.602 515.169 421.602C526.657 429.055 530.073 449.23 530.073 449.23C530.073 454.509 538.146 474.083 538.146 474.083C536.861 475.729 532.023 476.191 528.26 476.294C531.261 476.372 540.066 476.402 541.867 474.083C541.867 474.071 533.794 454.497 533.794 449.218Z" fill="black"/>
        </g>
        <path d="M465.496 365.342C465.12 366.26 464.625 367.124 464.025 367.913C462.158 370.429 458.275 373.757 451.169 372.844C450.645 372.777 450.148 372.575 449.725 372.258C449.303 371.941 448.97 371.521 448.758 371.037C448.546 370.553 448.464 370.022 448.518 369.497C448.572 368.971 448.762 368.469 449.068 368.039C451.349 364.709 454.625 362.186 458.425 360.831C459.711 360.407 461.043 360.137 462.393 360.027L465.496 365.342Z" fill="#AE6E79"/>
        <path d="M531.063 278.457L506.166 269.346C506.166 269.346 499.024 273.076 501.821 278.355L526.063 293.581L531.063 278.457Z" fill="#42383C"/>
        <path opacity="0.1" d="M531.159 278.559L506.256 269.448C506.256 269.448 499.114 273.172 501.911 278.457L526.123 293.677L531.159 278.559Z" fill="black"/>
        <path d="M531.933 263.442C531.933 263.442 531.621 278.043 538.146 283.016C544.67 287.989 519.203 290.782 519.203 290.782C519.203 290.782 523.242 275.868 519.203 268.102C515.163 260.337 531.933 263.442 531.933 263.442Z" fill="#AE6E79"/>
        <path opacity="0.1" d="M525.103 375.595C524.138 377.73 523.414 379.966 522.942 382.261C492.931 386.85 472.014 374.351 472.014 374.351C471.9 374.171 471.792 373.991 471.696 373.811C473.569 371.126 474.811 369.69 474.811 369.69L525.103 375.595Z" fill="black"/>
        <path opacity="0.1" d="M465.496 365.342C465.12 366.26 464.625 367.124 464.025 367.913C461.15 367.432 458.851 361.907 458.425 360.861C459.711 360.437 461.043 360.167 462.393 360.057L465.496 365.342Z" fill="black"/>
        <path d="M534.418 276.493L523.242 280.529L518.585 286.746C518.585 286.746 508.981 289.851 507.721 289.851C506.46 289.851 503.063 291.094 500.89 296.061C498.717 301.028 490.957 325.275 484.126 329.305C477.296 333.335 459.289 360.369 459.289 360.369C459.289 360.369 462.393 368.778 466.12 367.516L474.811 360.369C474.811 360.369 467.981 367.204 472.014 373.42C472.014 373.42 497.475 388.64 532.558 379.318L532.864 370.003L534.418 377.457L551.824 366.585C551.824 366.585 550.27 346.531 547.467 336.326C546.306 332.035 546.732 327.469 548.667 323.467C553.175 314.068 560.131 298.367 559.285 292.644C558.283 285.899 554.483 282.968 553.019 282.085C552.687 281.882 552.313 281.757 551.926 281.718L546.242 281.154L534.418 276.493Z" fill="#42383C"/>
        <path opacity="0.05" d="M515.325 307.713C515.325 307.713 509.113 336.603 502.283 341.263C495.452 345.924 477.14 360.837 476.516 363.324" fill="black"/>
        <path d="M512.528 306.782C512.528 306.782 506.322 335.672 499.492 340.332C492.661 344.993 474.343 359.906 473.725 362.387" fill="#42383C"/>
        <path opacity="0.1" d="M518.428 286.589C518.428 286.589 539.85 279.442 546.038 281.304L518.428 286.589Z" fill="black"/>
        <g opacity="0.05">
        <path opacity="0.05" d="M548.637 323.473C553.145 314.074 560.101 298.373 559.255 292.65C558.253 285.905 554.453 282.974 552.989 282.091C552.657 281.888 552.283 281.763 551.896 281.724L549.495 281.484C549.75 281.542 549.993 281.642 550.216 281.778C551.668 282.667 555.48 285.592 556.476 292.343C557.322 298.061 550.366 313.767 545.864 323.167C543.929 327.167 543.503 331.731 544.664 336.02C547.473 346.23 549.027 366.279 549.027 366.279L534.058 375.643L534.436 377.444L551.842 366.573C551.842 366.573 550.288 346.519 547.485 336.314C546.313 332.035 546.722 327.476 548.637 323.473Z" fill="black"/>
        <path opacity="0.05" d="M543.421 280.842L546.11 281.112L534.418 276.493L533.368 276.871L543.421 280.842Z" fill="black"/>
        </g>
        <path opacity="0.05" d="M512.528 336.915C512.528 336.915 522.132 331.636 525.259 332.879C528.386 334.122 539.85 332.566 539.85 332.566" fill="black"/>
        <path opacity="0.05" d="M530.865 267.328C530.511 264.211 531.951 264.685 531.951 264.685C531.951 264.685 515.187 261.58 519.221 269.346C520.238 271.486 520.817 273.808 520.925 276.175H521.087C525.745 276.181 528.464 270.967 530.865 267.328Z" fill="black"/>
        <path d="M521.069 274.938C528.442 274.938 534.418 268.957 534.418 261.58C534.418 254.203 528.442 248.222 521.069 248.222C513.697 248.222 507.721 254.203 507.721 261.58C507.721 268.957 513.697 274.938 521.069 274.938Z" fill="#AE6E79"/>
        <path opacity="0.1" d="M535.667 265.532C536.867 262.871 537.761 259.988 537.617 257.069C537.473 254.15 536.165 251.189 533.74 249.556C532.491 248.715 531.015 248.264 529.712 247.495C528.698 246.895 527.804 246.108 526.837 245.435C524.473 243.823 521.725 242.862 518.872 242.652C516.018 242.441 513.159 242.987 510.584 244.234C508.135 245.435 506.046 247.303 503.735 248.775C501.424 250.246 498.699 251.375 495.993 250.943C495.524 252.234 496.671 253.508 497.721 254.396C499.72 256.072 501.983 257.742 504.588 257.796C505.596 257.796 506.658 257.604 507.589 258.024C508.205 258.365 508.729 258.851 509.113 259.442C510.367 261.11 511.43 262.913 512.282 264.817C512.543 265.636 513.035 266.362 513.699 266.907C514.899 267.676 516.454 267.033 517.9 266.979C520.109 266.889 522.102 268.283 523.734 269.772C525.367 271.262 526.927 272.967 528.992 273.754C530.535 274.355 533.62 274.319 534.394 272.475C534.688 271.778 534.118 270.289 534.238 269.436C534.527 268.073 535.008 266.759 535.667 265.532Z" fill="black"/>
        <path d="M535.943 265.214C537.143 262.553 538.043 259.67 537.893 256.757C537.743 253.844 536.447 250.871 534.022 249.243C532.768 248.396 531.291 247.946 529.995 247.177C528.98 246.576 528.086 245.796 527.12 245.117C524.755 243.504 522.007 242.544 519.154 242.333C516.3 242.122 513.441 242.668 510.866 243.916C508.417 245.117 506.328 246.979 504.017 248.45C501.707 249.922 498.982 251.057 496.275 250.619C495.806 251.916 496.947 253.189 498.003 254.072C500.002 255.748 502.265 257.418 504.87 257.478C505.878 257.478 506.94 257.279 507.871 257.706C508.49 258.043 509.014 258.53 509.395 259.123C510.649 260.788 511.71 262.589 512.558 264.493C512.822 265.312 513.316 266.038 513.981 266.583C515.181 267.352 516.736 266.709 518.182 266.655C520.391 266.571 522.384 267.964 524.01 269.454C525.637 270.943 527.204 272.643 529.274 273.43C530.817 274.031 533.902 273.994 534.676 272.151C534.976 271.454 534.406 269.964 534.526 269.111C534.812 267.752 535.289 266.439 535.943 265.214Z" fill="#42383C"/>
        <path opacity="0.1" d="M439.308 462.473C438.189 463.393 436.783 463.89 435.335 463.879L167.177 462.738C166.458 461.871 165.923 460.866 165.606 459.784C165.289 458.703 165.197 457.568 165.335 456.449L191.828 239.525L208.442 239.345C209.832 239.331 211.186 239.779 212.294 240.618C213.402 241.457 214.2 242.64 214.564 243.982L217.667 255.442C218.035 256.798 218.846 257.991 219.971 258.832C221.096 259.672 222.47 260.111 223.874 260.078L290.179 258.487C291.818 258.447 293.377 257.768 294.522 256.594C295.667 255.42 296.308 253.845 296.307 252.204V244.612C296.307 242.959 296.959 241.371 298.121 240.195C299.283 239.019 300.861 238.349 302.514 238.33L394.394 237.339C395.864 237.325 397.292 237.828 398.43 238.76C399.567 239.692 400.342 240.994 400.619 242.438L441.253 455.056L441.517 456.425C441.732 457.539 441.641 458.691 441.252 459.756C440.862 460.822 440.191 461.761 439.308 462.473Z" fill="black"/>
        <path d="M391.393 240.348L299.513 241.339C297.86 241.356 296.281 242.025 295.118 243.2C293.955 244.375 293.302 245.962 293.3 247.616V255.213C293.299 256.852 292.659 258.425 291.515 259.597C290.371 260.77 288.815 261.449 287.178 261.49L220.879 263.081C219.474 263.117 218.098 262.679 216.971 261.838C215.845 260.997 215.033 259.802 214.666 258.445L211.551 246.991C211.188 245.648 210.389 244.463 209.28 243.624C208.17 242.784 206.814 242.338 205.423 242.354L116.862 243.309C115.954 243.318 115.06 243.524 114.239 243.912C113.419 244.301 112.693 244.863 112.111 245.559C111.529 246.256 111.105 247.071 110.868 247.947C110.631 248.824 110.587 249.741 110.739 250.637L146.368 460.467C146.615 461.926 147.369 463.251 148.497 464.208C149.625 465.165 151.054 465.693 152.532 465.699L432.316 466.9C433.242 466.903 434.157 466.701 434.996 466.309C435.835 465.917 436.576 465.343 437.168 464.63C437.759 463.917 438.186 463.082 438.417 462.185C438.648 461.288 438.678 460.351 438.504 459.44L397.617 245.447C397.342 244.002 396.567 242.7 395.43 241.768C394.292 240.836 392.863 240.333 391.393 240.348Z" fill="#E6E8EE"/>
        <path d="M520.793 96.657L520.313 102.002L520.661 111.456L519.647 127.402C519.647 127.402 519.503 134.388 515.559 137.661L505.494 153.127L505.434 153.157L501.646 155.007L495.866 155.607L492.865 148.334L494.852 140.346L495.956 138.856L496.263 138.52C497.463 137.198 502.097 132.4 505.776 130.904C505.776 130.904 508.231 129.102 507.799 126.279C507.367 123.456 511.112 108.453 511.112 108.453C511.112 108.453 513.513 98.5309 512.99 97.5639C512.468 96.5969 512.894 74.6324 521.177 74.2961C529.46 73.9597 520.793 96.657 520.793 96.657Z" fill="#F6BAC2"/>
        <path opacity="0.1" d="M90.8903 422.298C96.2638 422.298 100.62 421.699 100.62 420.959C100.62 420.219 96.2638 419.62 90.8903 419.62C85.5169 419.62 81.1609 420.219 81.1609 420.959C81.1609 421.699 85.5169 422.298 90.8903 422.298Z" fill="#2DC2BD"/>
        <path opacity="0.1" d="M53.6231 426.076C58.9965 426.076 63.3525 425.477 63.3525 424.737C63.3525 423.997 58.9965 423.397 53.6231 423.397C48.2496 423.397 43.8936 423.997 43.8936 424.737C43.8936 425.477 48.2496 426.076 53.6231 426.076Z" fill="#2DC2BD"/>
        <path opacity="0.1" d="M9.72946 420.959C15.1029 420.959 19.4589 420.359 19.4589 419.62C19.4589 418.88 15.1029 418.28 9.72946 418.28C4.35603 418.28 0 418.88 0 419.62C0 420.359 4.35603 420.959 9.72946 420.959Z" fill="#2DC2BD"/>
        <path opacity="0.1" d="M68.5384 436.455C72.3571 436.455 75.4529 436.03 75.4529 435.506C75.4529 434.982 72.3571 434.557 68.5384 434.557C64.7196 434.557 61.6239 434.982 61.6239 435.506C61.6239 436.03 64.7196 436.455 68.5384 436.455Z" fill="#2DC2BD"/>
        <path opacity="0.1" d="M29.8606 435.506C33.6794 435.506 36.7751 435.081 36.7751 434.557C36.7751 434.033 33.6794 433.608 29.8606 433.608C26.0419 433.608 22.9462 434.033 22.9462 434.557C22.9462 435.081 26.0419 435.506 29.8606 435.506Z" fill="#2DC2BD"/>
        <path d="M53.413 424.443C53.413 424.443 67.0559 379.685 51.2762 361.756C39.47 348.345 26.0673 349.948 20.0651 351.606C18.5132 352.021 17.0697 352.768 15.8344 353.796C14.5992 354.823 13.6016 356.107 12.9106 357.558C10.8098 362.087 11.188 369.438 26.0012 378.021C50.7961 392.388 52.3386 412.094 52.3386 412.094L53.413 424.443Z" fill="#2DC2BD"/>
        <path d="M22.2079 357.954C22.2079 357.954 62.4222 370.567 53.419 424.443" stroke="#565987" stroke-miterlimit="10"/>
        <path d="M45.7003 362.465C45.7003 362.465 40.1603 366.201 41.9249 371.817" stroke="#565987" stroke-miterlimit="10"/>
        <path d="M26.2413 365.793C26.2413 365.793 29.6265 362.345 33.75 364.249" stroke="#565987" stroke-miterlimit="10"/>
        <path d="M42.141 383.126C42.141 383.126 48.0891 380.123 49.6257 383.889" stroke="#565987" stroke-miterlimit="10"/>
        <path d="M56.8522 389.415C56.8522 389.415 52.3866 389.06 52.3086 391.216" stroke="#565987" stroke-miterlimit="10"/>
        <path d="M53.9652 424.797C53.9652 424.797 37.9815 392.268 33.594 392.964C31.5112 393.307 30.5509 395.367 30.1127 397.421C29.574 400.086 29.8782 402.853 30.983 405.337C33.2518 410.562 39.344 420.442 53.9652 424.797Z" fill="#2DC2BD"/>
        <path d="M33.714 399.151C33.714 399.151 50.484 423.488 53.7251 424.557" stroke="#565987" stroke-miterlimit="10"/>
        <path d="M32.1714 402.953H36.0848" stroke="#565987" stroke-miterlimit="10"/>
        <path d="M36.8591 411.854L42.9993 412.118" stroke="#565987" stroke-miterlimit="10"/>
        <path d="M40.5984 404.73L39.9322 407.932" stroke="#565987" stroke-miterlimit="10"/>
        <path d="M47.1228 414.466L47.0027 417.373" stroke="#565987" stroke-miterlimit="10"/>
        <path d="M53.491 424.797C53.491 424.797 69.4687 392.268 73.8563 392.964C75.945 393.307 76.9054 395.367 77.3375 397.421C77.8762 400.086 77.572 402.853 76.4672 405.337C74.1984 410.562 68.1002 420.442 53.491 424.797Z" fill="#2DC2BD"/>
        <path d="M73.7422 399.151C73.7422 399.151 56.9363 423.488 53.7251 424.557" stroke="#565987" stroke-miterlimit="10"/>
        <path d="M75.2848 402.953H71.3714" stroke="#565987" stroke-miterlimit="10"/>
        <path d="M70.5971 411.854L64.4569 412.118" stroke="#565987" stroke-miterlimit="10"/>
        <path d="M66.8578 404.73L67.524 407.932" stroke="#565987" stroke-miterlimit="10"/>
        <path d="M60.3335 414.466L60.4535 417.373" stroke="#565987" stroke-miterlimit="10"/>
        <path d="M26.0493 432.395C25.6144 432.039 25.2983 431.559 25.143 431.019C25.0688 430.748 25.0918 430.46 25.208 430.204C25.3243 429.949 25.5264 429.742 25.7792 429.62C26.3794 429.398 26.9796 429.8 27.4598 430.22C27.94 430.641 28.4862 431.085 29.0864 430.983C28.7678 430.694 28.5296 430.328 28.3949 429.919C28.2603 429.511 28.2338 429.075 28.3181 428.653C28.3427 428.478 28.4154 428.314 28.5282 428.178C28.8523 427.83 29.4405 427.98 29.8306 428.256C31.0311 429.121 31.4092 430.797 31.4152 432.311C31.4753 431.756 31.4753 431.196 31.4152 430.641C31.3993 430.361 31.4523 430.082 31.5695 429.827C31.6867 429.573 31.8646 429.351 32.0874 429.181C32.3796 429.022 32.709 428.943 33.0418 428.953C33.3176 428.914 33.5986 428.933 33.8664 429.009C34.1343 429.086 34.383 429.218 34.5963 429.398C34.8006 429.676 34.9057 430.015 34.8948 430.36C34.8839 430.705 34.7577 431.037 34.5363 431.302C34.0765 431.818 33.5326 432.252 32.9277 432.587C32.4686 432.863 32.077 433.239 31.7813 433.686C31.7451 433.746 31.7168 433.811 31.6973 433.878H28.2041C27.4221 433.483 26.6972 432.984 26.0493 432.395Z" fill="#2DC2BD"/>
        <path d="M86.941 419.289C86.5051 418.937 86.1886 418.459 86.0346 417.92C85.96 417.65 85.9821 417.362 86.0972 417.106C86.2123 416.851 86.4131 416.643 86.6649 416.52C87.2651 416.298 87.8653 416.701 88.3455 417.121C88.8256 417.541 89.3658 417.998 89.984 417.908C89.6654 417.62 89.4266 417.255 89.2909 416.848C89.1553 416.44 89.1273 416.005 89.2098 415.583C89.2364 415.408 89.3112 415.244 89.4258 415.109C89.75 414.761 90.3382 414.911 90.7283 415.181C91.9587 416.052 92.3069 417.728 92.3129 419.241C92.3729 418.684 92.3729 418.122 92.3129 417.565C92.2861 417.289 92.3267 417.01 92.4312 416.753C92.5358 416.495 92.7011 416.267 92.9131 416.088C93.2065 415.932 93.5354 415.856 93.8674 415.866C94.1428 415.827 94.4232 415.846 94.6908 415.921C94.9584 415.997 95.2074 416.127 95.422 416.304C95.6269 416.584 95.7318 416.924 95.7199 417.271C95.7079 417.617 95.5797 417.949 95.356 418.214C94.8995 418.732 94.3574 419.166 93.7534 419.499C93.2942 419.773 92.9024 420.147 92.607 420.593C92.5718 420.655 92.5436 420.722 92.5229 420.791H89.1077C88.3199 420.392 87.5908 419.887 86.941 419.289Z" fill="#2DC2BD"/>
        <path d="M66.6477 432.395C66.2132 432.038 65.8954 431.559 65.7354 431.019C65.6612 430.748 65.6842 430.46 65.8005 430.204C65.9167 429.949 66.1188 429.742 66.3716 429.62C66.9718 429.398 67.5721 429.8 68.0522 430.22C68.5324 430.641 69.0666 431.097 69.6908 431.013C69.3726 430.724 69.1343 430.358 68.9987 429.95C68.863 429.541 68.8348 429.105 68.9165 428.683C68.9432 428.508 69.018 428.343 69.1326 428.208C69.4567 427.86 70.0449 428.01 70.4351 428.286C71.6655 429.151 72.0076 430.827 72.0196 432.341C72.0797 431.786 72.0797 431.226 72.0196 430.671C71.9964 430.392 72.0417 430.111 72.1515 429.854C72.2614 429.596 72.4324 429.37 72.6499 429.193C72.9417 429.033 73.2714 428.954 73.6042 428.965C73.88 428.926 74.1609 428.945 74.4287 429.022C74.6965 429.099 74.9453 429.231 75.1588 429.41C75.3632 429.688 75.4679 430.028 75.4559 430.373C75.444 430.718 75.316 431.05 75.0927 431.314C74.6351 431.83 74.0932 432.264 73.4902 432.599C73.0311 432.875 72.6394 433.251 72.3438 433.698C72.3075 433.758 72.2792 433.823 72.2597 433.89H68.7785C68.0049 433.489 67.2883 432.986 66.6477 432.395Z" fill="#2DC2BD"/>
        <path d="M9.0932 405.908C9.0932 405.908 7.79074 407.613 9.69341 410.19C11.5961 412.767 13.1686 414.941 12.5324 416.544C12.5324 416.544 9.6574 411.74 7.31657 411.698C4.97573 411.655 6.51828 408.761 9.0932 405.908Z" fill="#2DC2BD"/>
        <path opacity="0.1" d="M9.09324 405.908C8.98083 406.073 8.89194 406.253 8.82915 406.442C6.54834 409.127 5.32991 411.631 7.52669 411.698C9.56741 411.758 12.0223 415.409 12.6045 416.334C12.5861 416.405 12.5641 416.476 12.5385 416.544C12.5385 416.544 9.66345 411.74 7.32262 411.698C4.98178 411.655 6.51833 408.761 9.09324 405.908Z" fill="black"/>
        <path d="M6.67438 408.082C6.67438 408.682 6.7404 409.169 6.82443 409.169C6.90846 409.169 6.97448 408.682 6.97448 408.082C6.97448 407.481 6.89045 407.763 6.80642 407.763C6.7224 407.763 6.67438 407.481 6.67438 408.082Z" fill="#FFD037"/>
        <path d="M5.84009 408.803C6.36828 409.091 6.82444 409.259 6.86646 409.187C6.90847 409.115 6.51233 408.827 5.98414 408.538C5.45595 408.25 5.66603 408.46 5.62402 408.538C5.582 408.616 5.31191 408.514 5.84009 408.803Z" fill="#FFD037"/>
        <path d="M15.9776 405.908C15.9776 405.908 17.2861 407.613 15.3774 410.19C13.4688 412.767 11.9022 414.941 12.5384 416.544C12.5384 416.544 15.4134 411.74 17.7543 411.698C20.0951 411.655 18.5526 408.761 15.9776 405.908Z" fill="#2DC2BD"/>
        <path opacity="0.1" d="M15.9777 405.908C16.0909 406.073 16.1817 406.253 16.2478 406.442C18.5286 409.127 19.747 411.631 17.5502 411.698C15.5095 411.758 13.0546 415.409 12.4664 416.334C12.4841 416.406 12.5082 416.477 12.5385 416.544C12.5385 416.544 15.4135 411.74 17.7543 411.698C20.0951 411.655 18.5526 408.761 15.9777 405.908Z" fill="black"/>
        <path d="M18.4026 408.082C18.4026 408.682 18.3366 409.169 18.2525 409.169C18.1685 409.169 18.1025 408.682 18.1025 408.082C18.1025 407.481 18.1865 407.763 18.2705 407.763C18.3546 407.763 18.4026 407.481 18.4026 408.082Z" fill="#FFD037"/>
        <path d="M19.2369 408.803C18.7087 409.091 18.2465 409.259 18.2105 409.187C18.1745 409.115 18.5646 408.827 19.0928 408.538C19.621 408.25 19.4109 408.46 19.4469 408.538C19.4829 408.616 19.759 408.514 19.2369 408.803Z" fill="#FFD037"/>
        <path d="M17.9884 416.322C17.9884 416.322 14.3451 416.208 13.2467 415.427C12.1484 414.646 7.64075 413.71 7.36465 414.965C7.08855 416.22 1.8907 421.211 6.00217 421.241C10.1136 421.271 15.5636 420.599 16.662 419.932C17.7603 419.265 17.9884 416.322 17.9884 416.322Z" fill="#A8A8A8"/>
        <path opacity="0.2" d="M5.93008 420.803C10.0475 420.839 15.4915 420.166 16.5899 419.493C17.4242 418.989 17.7543 417.163 17.8683 416.316H17.9884C17.9884 416.316 17.7603 419.259 16.6619 419.92C15.5635 420.581 10.1196 421.265 6.00211 421.229C4.80168 421.229 4.40554 420.797 4.42955 420.172C4.59161 420.563 5.07778 420.773 5.93008 420.803Z" fill="black"/>
        <path opacity="0.1" d="M20.3712 89.0952C27.5413 89.0952 33.3538 83.2788 33.3538 76.1039C33.3538 68.929 27.5413 63.1126 20.3712 63.1126C13.2011 63.1126 7.38861 68.929 7.38861 76.1039C7.38861 83.2788 13.2011 89.0952 20.3712 89.0952Z" fill="#2DC2BD"/>
        <path opacity="0.1" d="M644.647 192.911C651.818 192.911 657.63 187.095 657.63 179.92C657.63 172.745 651.818 166.929 644.647 166.929C637.477 166.929 631.665 172.745 631.665 179.92C631.665 187.095 637.477 192.911 644.647 192.911Z" fill="#2DC2BD"/>
        <path opacity="0.1" d="M411.272 47.839C418.442 47.839 424.255 42.0226 424.255 34.8477C424.255 27.6728 418.442 21.8564 411.272 21.8564C404.102 21.8564 398.29 27.6728 398.29 34.8477C398.29 42.0226 404.102 47.839 411.272 47.839Z" fill="#2DC2BD"/>
        <path opacity="0.1" d="M46.3365 169.548C58.3529 169.548 68.0942 159.8 68.0942 147.775C68.0942 135.751 58.3529 126.003 46.3365 126.003C34.32 126.003 24.5787 135.751 24.5787 147.775C24.5787 159.8 34.32 169.548 46.3365 169.548Z" fill="#2DC2BD"/>
        <path d="M258.212 353.546L257.444 352.777C257.361 352.7 257.296 352.607 257.251 352.504C257.206 352.401 257.183 352.289 257.183 352.177C257.183 352.064 257.206 351.953 257.251 351.849C257.296 351.746 257.361 351.653 257.444 351.576L264.184 344.825C264.261 344.743 264.354 344.677 264.457 344.633C264.56 344.588 264.672 344.565 264.784 344.565C264.897 344.565 265.008 344.588 265.111 344.633C265.215 344.677 265.308 344.743 265.384 344.825L272.125 351.57C272.205 351.648 272.27 351.741 272.313 351.844C272.357 351.948 272.38 352.058 272.38 352.171C272.38 352.283 272.357 352.394 272.313 352.497C272.27 352.6 272.205 352.693 272.125 352.771L271.357 353.54C271.279 353.621 271.185 353.685 271.082 353.729C270.979 353.772 270.868 353.795 270.756 353.795C270.644 353.795 270.533 353.772 270.43 353.729C270.327 353.685 270.234 353.621 270.156 353.54L266.171 349.336V359.312C266.171 359.421 266.151 359.53 266.109 359.631C266.068 359.732 266.007 359.824 265.93 359.902C265.853 359.979 265.762 360.041 265.661 360.083C265.56 360.125 265.452 360.147 265.342 360.147H264.232C264.011 360.147 263.799 360.059 263.642 359.902C263.486 359.746 263.398 359.533 263.398 359.312V349.348L259.412 353.552C259.334 353.632 259.24 353.696 259.137 353.739C259.034 353.783 258.923 353.805 258.811 353.804C258.699 353.803 258.588 353.78 258.485 353.736C258.382 353.692 258.289 353.627 258.212 353.546Z" fill="#F6F7F9"/>
        <path d="M264.772 338.693C267.478 338.693 270.122 339.496 272.372 341C274.621 342.504 276.374 344.641 277.41 347.143C278.445 349.644 278.716 352.396 278.188 355.051C277.66 357.706 276.358 360.145 274.445 362.06C272.532 363.974 270.094 365.278 267.441 365.806C264.787 366.334 262.037 366.063 259.537 365.027C257.038 363.991 254.902 362.236 253.399 359.985C251.896 357.734 251.093 355.088 251.093 352.381C251.096 348.751 252.539 345.272 255.103 342.705C257.668 340.139 261.145 338.696 264.772 338.693ZM264.772 336.891C261.711 336.891 258.718 337.799 256.172 339.501C253.627 341.203 251.643 343.623 250.471 346.453C249.299 349.284 248.993 352.398 249.59 355.403C250.187 358.407 251.662 361.168 253.827 363.334C255.991 365.5 258.75 366.975 261.752 367.573C264.755 368.171 267.867 367.864 270.696 366.692C273.524 365.519 275.942 363.534 277.643 360.987C279.344 358.439 280.252 355.444 280.252 352.381C280.252 348.273 278.621 344.333 275.718 341.428C272.815 338.523 268.878 336.891 264.772 336.891Z" fill="#F6F7F9"/>
        </g>
        <defs>
        <linearGradient id="paint0_linear" x1="472.002" y1="341.275" x2="472.002" y2="61.1967" gradientUnits="userSpaceOnUse">
        <stop stop-color="#808080" stop-opacity="0.25"/>
        <stop offset="0.54" stop-color="#808080" stop-opacity="0.12"/>
        <stop offset="1" stop-color="#808080" stop-opacity="0.1"/>
        </linearGradient>
        <linearGradient id="paint1_linear" x1="1006.73" y1="433.402" x2="1006.73" y2="429.797" gradientUnits="userSpaceOnUse">
        <stop stop-color="#808080" stop-opacity="0.25"/>
        <stop offset="0.54" stop-color="#808080" stop-opacity="0.12"/>
        <stop offset="1" stop-color="#808080" stop-opacity="0.1"/>
        </linearGradient>
        <linearGradient id="paint2_linear" x1="44221.2" y1="69023.8" x2="51433.6" y2="58591.4" gradientUnits="userSpaceOnUse">
        <stop stop-color="#808080" stop-opacity="0.25"/>
        <stop offset="0.54" stop-color="#808080" stop-opacity="0.12"/>
        <stop offset="1" stop-color="#808080" stop-opacity="0.1"/>
        </linearGradient>
        <linearGradient id="paint3_linear" x1="62458.8" y1="54733" x2="66005.8" y2="42603.3" gradientUnits="userSpaceOnUse">
        <stop stop-color="#808080" stop-opacity="0.25"/>
        <stop offset="0.54" stop-color="#808080" stop-opacity="0.12"/>
        <stop offset="1" stop-color="#808080" stop-opacity="0.1"/>
        </linearGradient>
        <linearGradient id="paint4_linear" x1="69119.8" y1="40448" x2="70134" y2="27850.5" gradientUnits="userSpaceOnUse">
        <stop stop-color="#808080" stop-opacity="0.25"/>
        <stop offset="0.54" stop-color="#808080" stop-opacity="0.12"/>
        <stop offset="1" stop-color="#808080" stop-opacity="0.1"/>
        </linearGradient>
        <linearGradient id="paint5_linear" x1="27266.9" y1="113146" x2="25390.3" y2="72007.7" gradientUnits="userSpaceOnUse">
        <stop stop-color="#808080" stop-opacity="0.25"/>
        <stop offset="0.54" stop-color="#808080" stop-opacity="0.12"/>
        <stop offset="1" stop-color="#808080" stop-opacity="0.1"/>
        </linearGradient>
        <linearGradient id="paint6_linear" x1="84405.8" y1="74608.4" x2="94090.8" y2="44838.6" gradientUnits="userSpaceOnUse">
        <stop stop-color="#808080" stop-opacity="0.25"/>
        <stop offset="0.54" stop-color="#808080" stop-opacity="0.12"/>
        <stop offset="1" stop-color="#808080" stop-opacity="0.1"/>
        </linearGradient>
        <linearGradient id="paint7_linear" x1="108095" y1="215650" x2="108095" y2="108617" gradientUnits="userSpaceOnUse">
        <stop stop-color="#808080" stop-opacity="0.25"/>
        <stop offset="0.54" stop-color="#808080" stop-opacity="0.12"/>
        <stop offset="1" stop-color="#808080" stop-opacity="0.1"/>
        </linearGradient>
        <clipPath id="clip0">
        <rect width="680" height="504" fill="white"/>
        </clipPath>
        </defs>
        </svg>